<svg xmlns="http://www.w3.org/2000/svg" viewBox="0 0 315.69 1171.77"><defs><style>.cls-1{fill:#e6e7e8;}.cls-11,.cls-12,.cls-2{font-size:14px;}.cls-2,.cls-7,.cls-9{fill:#58595b;}.cls-11,.cls-12,.cls-2,.cls-3{font-family:Lato-Bold, Lato;}.cls-11,.cls-12,.cls-2,.cls-3,.cls-9{font-weight:700;}.cls-3{font-size:18px;}.cls-11,.cls-12,.cls-3{fill:#231f20;}.cls-4,.cls-8{fill:#fff;}.cls-10,.cls-4{stroke:#6d6e71;}.cls-10,.cls-4,.cls-5,.cls-6{stroke-miterlimit:10;}.cls-4{stroke-width:2px;}.cls-10,.cls-5,.cls-6{fill:none;}.cls-5,.cls-6{stroke:#a7a9ac;}.cls-6{stroke-dasharray:12.02 12.02;}.cls-7,.cls-9{font-size:12px;}.cls-7{font-family:Lato-Regular, Lato;}.cls-9{font-family:Arial-BoldMT, Arial;}.cls-12{letter-spacing:-0.12em;}.cls-13{letter-spacing:0em;}.cls-14{letter-spacing:-0.01em;}.cls-15{letter-spacing:-0.02em;}.cls-16{letter-spacing:-0.03em;}</style></defs><title>design_iterations</title><g id="Layer_1" data-name="Layer 1"><polygon class="cls-1" points="211.25 260.12 236.74 260.12 160.97 324.4 81.63 260.12 108.62 260.12 2.28 129.5 313.4 129.5 211.25 260.12"/><text class="cls-2" transform="translate(136.31 256.6)">Design<tspan x="-10.27" y="18">guidelines</tspan></text><polygon class="cls-1" points="211.25 832.48 236.74 832.48 160.97 896.77 81.63 832.48 108.62 832.48 2.28 701.87 313.4 701.87 211.25 832.48"/><text class="cls-2" transform="translate(111.96 828.97)">Refined design<tspan x="14.08" y="18">guidelines</tspan></text><polygon class="cls-1" points="287.66 444.18 287.66 404.37 28.03 404.37 28.03 429.36 114.02 534.98 87.02 534.98 166.36 599.27 242.13 534.98 216.65 534.98 287.66 444.18"/><text class="cls-2" transform="translate(143.09 531.46)">User<tspan x="-6.96" y="18">testing</tspan></text><text class="cls-3" transform="translate(98.9 15.51)">Problem space</text><ellipse class="cls-4" cx="157.84" cy="129.51" rx="156.84" ry="100"/><line class="cls-5" x1="313.46" y1="129.51" x2="307.46" y2="129.51"/><line class="cls-6" x1="295.44" y1="129.51" x2="13.01" y2="129.51"/><line class="cls-5" x1="7" y1="129.51" x2="1" y2="129.51"/><text class="cls-7" transform="translate(126.87 51)">Human side</text><text class="cls-7" transform="translate(129.92 211.14)">Robot side</text><rect class="cls-8" x="65.55" y="117.66" width="184.82" height="27.94"/><text class="cls-9" transform="translate(62.48 135.15)">Safety and ethical considerations</text><rect class="cls-10" x="53.99" y="70.77" width="97.19" height="35.67" rx="12" ry="12"/><text class="cls-11" transform="translate(66.64 93.37)">User group</text><rect class="cls-10" x="164.51" y="71.49" width="97.19" height="35.67" rx="12" ry="12"/><text class="cls-11" transform="translate(198.5 94.1)">Goal</text><rect class="cls-10" x="109.25" y="152.02" width="97.19" height="35.67" rx="12" ry="12"/><text class="cls-12" transform="translate(143.95 174.63)">T<tspan class="cls-13" x="6.62" y="0">ask</tspan></text><text class="cls-3" transform="translate(99.61 312.04)">Solution space</text><rect class="cls-4" x="27.55" y="323.94" width="260.6" height="170.26" rx="25" ry="25"/><rect class="cls-10" x="53.89" y="430.07" width="97.19" height="35.67" rx="12" ry="12"/><text class="cls-11" transform="translate(67.53 452.67)">Inte<tspan class="cls-14" x="25.26" y="0">r</tspan><tspan x="30.77" y="0">action</tspan></text><rect class="cls-10" x="164.61" y="429.53" width="97.19" height="35.67" rx="12" ry="12"/><text class="cls-11" transform="translate(184.92 452.13)">Beh<tspan class="cls-15" x="24.56" y="0">a</tspan><tspan x="31.64" y="0">vior</tspan></text><text class="cls-11" transform="translate(117.21 361.3)">E<tspan class="cls-15" x="8.02" y="0">n</tspan><tspan x="15.72" y="0">vironment</tspan></text><rect class="cls-10" x="116.97" y="381.44" width="81.74" height="35.67" rx="12" ry="12"/><text class="cls-11" transform="translate(141.4 404.04)"><tspan class="cls-16">F</tspan><tspan x="7.41" y="0">orm</tspan></text><polygon class="cls-1" points="287.66 1016.68 287.66 976.87 28.03 976.87 28.03 1001.86 114.02 1107.48 87.02 1107.48 166.36 1171.77 242.13 1107.48 216.65 1107.48 287.66 1016.68"/><text class="cls-2" transform="translate(143.09 1103.96)">User<tspan x="-6.96" y="18">testing</tspan></text><text class="cls-3" transform="translate(66.52 587.88)">Refined problem space</text><ellipse class="cls-4" cx="157.84" cy="701.88" rx="156.84" ry="100"/><line class="cls-5" x1="313.46" y1="701.88" x2="307.46" y2="701.88"/><line class="cls-6" x1="295.44" y1="701.88" x2="13.01" y2="701.88"/><line class="cls-5" x1="7" y1="701.88" x2="1" y2="701.88"/><text class="cls-7" transform="translate(126.87 623.37)">Human side</text><text class="cls-7" transform="translate(129.92 783.51)">Robot side</text><rect class="cls-8" x="65.55" y="690.03" width="184.82" height="27.94"/><text class="cls-9" transform="translate(62.48 707.52)">Safety and ethical considerations</text><rect class="cls-10" x="53.99" y="643.14" width="97.19" height="35.67" rx="12" ry="12"/><text class="cls-11" transform="translate(66.64 665.74)">User group</text><rect class="cls-10" x="164.51" y="643.86" width="97.19" height="35.67" rx="12" ry="12"/><text class="cls-11" transform="translate(198.5 666.46)">Goal</text><rect class="cls-10" x="109.25" y="724.39" width="97.19" height="35.67" rx="12" ry="12"/><text class="cls-12" transform="translate(143.95 746.99)">T<tspan class="cls-13" x="6.62" y="0">ask</tspan></text><text class="cls-3" transform="translate(67.6 884.4)">Refined solution space</text><rect class="cls-4" x="27.55" y="896.3" width="260.6" height="170.26" rx="25" ry="25"/><rect class="cls-10" x="53.89" y="1002.44" width="97.19" height="35.67" rx="12" ry="12"/><text class="cls-11" transform="translate(67.53 1025.04)">Inte<tspan class="cls-14" x="25.26" y="0">r</tspan><tspan x="30.77" y="0">action</tspan></text><rect class="cls-10" x="164.61" y="1001.9" width="97.19" height="35.67" rx="12" ry="12"/><text class="cls-11" transform="translate(184.92 1024.5)">Beh<tspan class="cls-15" x="24.56" y="0">a</tspan><tspan x="31.64" y="0">vior</tspan></text><text class="cls-11" transform="translate(117.21 933.67)">E<tspan class="cls-15" x="8.02" y="0">n</tspan><tspan x="15.72" y="0">vironment</tspan></text><rect class="cls-10" x="116.97" y="953.81" width="81.74" height="35.67" rx="12" ry="12"/><text class="cls-11" transform="translate(141.4 976.41)"><tspan class="cls-16">F</tspan><tspan x="7.41" y="0">orm</tspan></text></g></svg>