<svg xmlns="http://www.w3.org/2000/svg" viewBox="0 0 315.69 474.2"><defs><style>.cls-1{fill:#e6e7e8;}.cls-2,.cls-7{fill:#fff;}.cls-2,.cls-9{stroke:#6d6e71;}.cls-2,.cls-4,.cls-5,.cls-9{stroke-miterlimit:10;}.cls-2{stroke-width:2px;}.cls-3{font-size:18px;}.cls-10,.cls-11,.cls-3{fill:#231f20;}.cls-10,.cls-11,.cls-16,.cls-3{font-family:Lato-Bold, Lato;}.cls-10,.cls-11,.cls-16,.cls-3,.cls-8{font-weight:700;}.cls-4,.cls-5,.cls-9{fill:none;}.cls-4,.cls-5{stroke:#a7a9ac;}.cls-5{stroke-dasharray:12.02 12.02;}.cls-6,.cls-8{font-size:12px;}.cls-16,.cls-6,.cls-8{fill:#58595b;}.cls-6{font-family:Lato-Regular, Lato;}.cls-8{font-family:Arial-BoldMT, Arial;}.cls-10,.cls-11,.cls-16{font-size:14px;}.cls-11{letter-spacing:-0.12em;}.cls-12{letter-spacing:0em;}.cls-13{letter-spacing:-0.01em;}.cls-14{letter-spacing:-0.02em;}.cls-15{letter-spacing:-0.03em;}</style></defs><title>designframework</title><g id="Layer_1" data-name="Layer 1"><polygon class="cls-1" points="211.31 260.12 236.79 260.12 161.02 324.4 81.68 260.12 108.67 260.12 2.34 129.5 313.46 129.5 211.31 260.12"/><rect class="cls-2" x="27.55" y="323.94" width="260.6" height="149.27" rx="25" ry="25"/><text class="cls-3" transform="translate(98 15.51)">Problem space</text><ellipse class="cls-2" cx="157.84" cy="129.51" rx="156.84" ry="100"/><line class="cls-4" x1="313.46" y1="129.51" x2="307.46" y2="129.51"/><line class="cls-5" x1="295.44" y1="129.51" x2="13.01" y2="129.51"/><line class="cls-4" x1="7" y1="129.51" x2="1" y2="129.51"/><text class="cls-6" transform="translate(126.87 51)">Human side</text><text class="cls-6" transform="translate(129.92 211.14)">Robot side</text><rect class="cls-7" x="65.55" y="117.66" width="184.82" height="27.94"/><text class="cls-8" transform="translate(61.59 135.15)">Safety and ethical considerations</text><rect class="cls-9" x="53.99" y="70.77" width="97.19" height="35.67" rx="12" ry="12"/><text class="cls-10" transform="translate(66.64 93.37)">User group</text><rect class="cls-9" x="164.51" y="71.49" width="97.19" height="35.67" rx="12" ry="12"/><text class="cls-10" transform="translate(198.5 94.1)">Goal</text><rect class="cls-9" x="109.25" y="152.02" width="97.19" height="35.67" rx="12" ry="12"/><text class="cls-11" transform="translate(143.95 174.63)">T<tspan class="cls-12" x="6.62" y="0">ask</tspan></text><text class="cls-3" transform="translate(99.61 312.04)">Solution space</text><rect class="cls-9" x="53.89" y="417.07" width="97.19" height="35.67" rx="12" ry="12"/><text class="cls-10" transform="translate(67.53 439.67)">Inte<tspan class="cls-13" x="25.26" y="0">r</tspan><tspan x="30.77" y="0">action</tspan></text><rect class="cls-9" x="164.61" y="416.53" width="97.19" height="35.67" rx="12" ry="12"/><text class="cls-10" transform="translate(184.92 439.13)">Beh<tspan class="cls-14" x="24.56" y="0">a</tspan><tspan x="31.64" y="0">vior</tspan></text><text class="cls-10" transform="translate(117.21 352.3)">E<tspan class="cls-14" x="8.02" y="0">n</tspan><tspan x="15.72" y="0">vironment</tspan></text><rect class="cls-9" x="116.97" y="367.44" width="81.74" height="35.67" rx="12" ry="12"/><text class="cls-10" transform="translate(141.4 390.04)"><tspan class="cls-15">F</tspan><tspan x="7.41" y="0">orm</tspan></text><text class="cls-16" transform="translate(136.31 256.6)">Design<tspan x="-10.27" y="18">guidelines</tspan></text></g></svg>