<svg xmlns="http://www.w3.org/2000/svg" viewBox="0 0 327.67 479.69"><defs><style>.cls-1{fill:#e6e7e8;}.cls-2,.cls-7{fill:#fff;}.cls-2,.cls-9{stroke:#6d6e71;}.cls-17,.cls-2,.cls-4,.cls-5,.cls-9{stroke-miterlimit:10;}.cls-2{stroke-width:2px;}.cls-3{font-size:18px;}.cls-10,.cls-11,.cls-3{fill:#231f20;}.cls-10,.cls-11,.cls-16,.cls-3{font-family:Lato-Bold, Lato;}.cls-10,.cls-11,.cls-16,.cls-3,.cls-8{font-weight:700;}.cls-17,.cls-4,.cls-5,.cls-9{fill:none;}.cls-4,.cls-5{stroke:#a7a9ac;}.cls-5{stroke-dasharray:12.02 12.02;}.cls-6,.cls-8{font-size:12px;}.cls-16,.cls-6,.cls-8{fill:#58595b;}.cls-6{font-family:Lato-Regular, Lato;}.cls-8{font-family:Arial-BoldMT, Arial;}.cls-10,.cls-11,.cls-16{font-size:14px;}.cls-11{letter-spacing:-0.12em;}.cls-12{letter-spacing:0em;}.cls-13{letter-spacing:-0.01em;}.cls-14{letter-spacing:-0.02em;}.cls-15{letter-spacing:-0.03em;}.cls-17{stroke:#231f20;stroke-width:4px;}</style></defs><title>focus_problem</title><g id="Layer_1" data-name="Layer 1"><polygon class="cls-1" points="217.67 265.6 243.16 265.6 167.39 329.89 88.05 265.6 115.04 265.6 8.71 134.99 319.83 134.99 217.67 265.6"/><rect class="cls-2" x="33.91" y="329.42" width="260.6" height="149.27" rx="25" ry="25"/><text class="cls-3" transform="translate(104.37 20.99)">Problem space</text><ellipse class="cls-2" cx="164.21" cy="134.99" rx="156.84" ry="100"/><line class="cls-4" x1="319.83" y1="134.99" x2="313.83" y2="134.99"/><line class="cls-5" x1="301.81" y1="134.99" x2="19.38" y2="134.99"/><line class="cls-4" x1="13.37" y1="134.99" x2="7.37" y2="134.99"/><text class="cls-6" transform="translate(133.24 56.48)">Human side</text><text class="cls-6" transform="translate(136.29 216.62)">Robot side</text><rect class="cls-7" x="71.92" y="123.14" width="184.82" height="27.94"/><text class="cls-8" transform="translate(67.96 140.63)">Safety and ethical considerations</text><rect class="cls-9" x="60.36" y="76.25" width="97.19" height="35.67" rx="12" ry="12"/><text class="cls-10" transform="translate(73.01 98.85)">User group</text><rect class="cls-9" x="170.88" y="76.98" width="97.19" height="35.67" rx="12" ry="12"/><text class="cls-10" transform="translate(204.87 99.58)">Goal</text><rect class="cls-9" x="115.62" y="157.51" width="97.19" height="35.67" rx="12" ry="12"/><text class="cls-11" transform="translate(150.32 180.11)">T<tspan class="cls-12" x="6.62" y="0">ask</tspan></text><text class="cls-3" transform="translate(105.98 317.52)">Solution space</text><rect class="cls-9" x="60.26" y="422.55" width="97.19" height="35.67" rx="12" ry="12"/><text class="cls-10" transform="translate(73.89 445.16)">Inte<tspan class="cls-13" x="25.26" y="0">r</tspan><tspan x="30.77" y="0">action</tspan></text><rect class="cls-9" x="170.98" y="422.01" width="97.19" height="35.67" rx="12" ry="12"/><text class="cls-10" transform="translate(191.29 444.62)">Beh<tspan class="cls-14" x="24.56" y="0">a</tspan><tspan x="31.64" y="0">vior</tspan></text><text class="cls-10" transform="translate(123.58 357.79)">E<tspan class="cls-14" x="8.02" y="0">n</tspan><tspan x="15.72" y="0">vironment</tspan></text><rect class="cls-9" x="123.34" y="372.92" width="81.74" height="35.67" rx="12" ry="12"/><text class="cls-10" transform="translate(147.77 395.52)"><tspan class="cls-15">F</tspan><tspan x="7.41" y="0">orm</tspan></text><text class="cls-16" transform="translate(142.68 262.08)">Design<tspan x="-10.27" y="18">guidelines</tspan></text><rect class="cls-17" x="2" y="2" width="323.67" height="241.33"/></g></svg>