<svg xmlns="http://www.w3.org/2000/svg" viewBox="0 0 541.63 489.5"><defs><style>.cls-1{font-size:18px;}.cls-1,.cls-6,.cls-8{fill:#231f20;font-family:Lato-Bold, Lato;}.cls-1,.cls-12,.cls-6,.cls-8{font-weight:700;}.cls-10,.cls-11,.cls-2{fill:#fff;}.cls-10,.cls-2,.cls-5,.cls-9{stroke:#6d6e71;stroke-miterlimit:10;}.cls-2{stroke-width:2px;}.cls-12,.cls-3{font-size:12px;fill:#58595b;}.cls-3{font-family:MyriadPro-Regular, Myriad Pro;}.cls-4{letter-spacing:0em;}.cls-5,.cls-9{fill:none;}.cls-6,.cls-8{font-size:14px;}.cls-6{letter-spacing:-0.12em;}.cls-7{letter-spacing:0em;}.cls-9{stroke-dasharray:12.27 12.27;}.cls-10{stroke-dasharray:12;}.cls-12{font-family:Arial-BoldMT, Arial;}</style></defs><title>problem_blank</title><g id="Layer_1" data-name="Layer 1"><text class="cls-1" transform="translate(211.78 15.51)">Problem space</text><ellipse class="cls-2" cx="270.81" cy="261.47" rx="269.81" ry="227.03"/><text class="cls-3" transform="translate(240.93 58)">Human side</text><text class="cls-3" transform="translate(244.13 473.41)"><tspan class="cls-4">R</tspan><tspan x="6.5" y="0">obot side</tspan></text><rect class="cls-5" x="144.98" y="365.24" width="251.3" height="88.57" rx="12" ry="12"/><text class="cls-6" transform="translate(256.74 387.85)">T<tspan class="cls-7" x="6.62" y="0">ask</tspan></text><rect class="cls-5" x="115.2" y="76.54" width="151.86" height="100.11" rx="12" ry="12"/><text class="cls-8" transform="translate(156.63 100.92)">User group</text><rect class="cls-5" x="274.2" y="76.54" width="151.86" height="100.11" rx="12" ry="12"/><text class="cls-8" transform="translate(335.53 100.92)">Goal</text><line class="cls-5" x1="540.54" y1="261.47" x2="534.54" y2="261.47"/><line class="cls-9" x1="522.27" y1="261.47" x2="13.05" y2="261.47"/><line class="cls-5" x1="6.91" y1="261.47" x2="0.91" y2="261.47"/><rect class="cls-10" x="49.23" y="189.29" width="442.81" height="164.56" rx="12" ry="12"/><rect class="cls-11" x="170.17" y="193.69" width="184.82" height="27.94"/><text class="cls-12" transform="translate(180.38 211.19)">Safety and ethical considerations</text></g></svg>