<svg id="Layer_1" data-name="Layer 1" xmlns="http://www.w3.org/2000/svg" viewBox="0 0 304.6 479.53"><defs><style>.cls-1{font-size:21px;}.cls-1,.cls-4{fill:#231f20;font-family:Lato-Bold, Lato;font-weight:700;}.cls-2{letter-spacing:-0.02em;}.cls-3{letter-spacing:0em;}.cls-4{font-size:16px;}.cls-5{letter-spacing:-0.03em;}.cls-6{letter-spacing:0em;}.cls-7{font-size:12px;font-family:MyriadPro-Regular, Myriad Pro;}.cls-16,.cls-7{fill:#58595b;}.cls-8{letter-spacing:0.02em;}.cls-9{letter-spacing:0em;}.cls-10{letter-spacing:0.01em;}.cls-11{letter-spacing:-0.01em;}.cls-12{letter-spacing:-0.01em;}.cls-13{letter-spacing:0em;}.cls-14{fill:#be1e2d;}.cls-14,.cls-15{stroke:#58595b;}.cls-14,.cls-15,.cls-25{stroke-miterlimit:10;}.cls-15,.cls-25{fill:none;}.cls-17{letter-spacing:0em;}.cls-18{letter-spacing:0em;}.cls-19{letter-spacing:-0.01em;}.cls-20{letter-spacing:-0.01em;}.cls-21{letter-spacing:0em;}.cls-22{letter-spacing:-0.02em;}.cls-23{letter-spacing:-0.01em;}.cls-24{letter-spacing:-0.02em;}.cls-25{stroke:#6d6e71;}</style></defs><title>solutionspace_blank</title><text class="cls-1" transform="translate(111.92 37.7)">Beh<tspan class="cls-2" x="36.84" y="0">a</tspan><tspan class="cls-3" x="47.46" y="0">vior</tspan></text><text class="cls-4" transform="translate(62.3 102.75)">Cont<tspan class="cls-5" x="35.11" y="0">e</tspan><tspan class="cls-6" x="43.18" y="0">xtual adaptation</tspan></text><text class="cls-7" transform="translate(62.3 145.19)">none</text><text class="cls-7" transform="translate(136.19 145.19)">pa<tspan class="cls-8" x="12.61" y="0">r</tspan><tspan x="16.82" y="0">tial</tspan></text><text class="cls-7" transform="translate(194.81 145.19)"><tspan class="cls-9">e</tspan><tspan class="cls-10" x="5.98" y="0">x</tspan><tspan class="cls-11" x="11.69" y="0">t</tspan><tspan x="15.59" y="0">ensi</tspan><tspan class="cls-12" x="35.82" y="0">v</tspan><tspan class="cls-13" x="41.47" y="0">e</tspan></text><line class="cls-14" x1="152.3" y1="123.78" x2="152.3" y2="131.02"/><line class="cls-15" x1="62.8" y1="127.4" x2="241.8" y2="127.4"/><rect class="cls-16" x="62.3" y="124.15" width="1" height="6.5"/><rect class="cls-16" x="241.3" y="124.15" width="1" height="6.5"/><text class="cls-4" transform="translate(62.3 193.7)">Motivation</text><text class="cls-7" transform="translate(62.3 236.14)"><tspan class="cls-9">e</tspan><tspan class="cls-10" x="5.98" y="0">x</tspan><tspan class="cls-11" x="11.69" y="0">t</tspan><tspan x="15.59" y="0">e</tspan><tspan class="cls-17" x="21.6" y="0">r</tspan><tspan class="cls-18" x="25.57" y="0">nal /</tspan><tspan x="0" y="14.4">e</tspan><tspan class="cls-19" x="6.01" y="14.4">n</tspan><tspan class="cls-18" x="12.52" y="14.4">vi</tspan><tspan class="cls-20" x="21.1" y="14.4">r</tspan><tspan x="24.9" y="14.4">onme</tspan><tspan class="cls-21" x="54.17" y="14.4">n</tspan><tspan x="60.78" y="14.4">t</tspan></text><text class="cls-7" transform="translate(136.81 236.14)">mi<tspan class="cls-22" x="12.82" y="0">x</tspan><tspan x="18.19" y="0">ed</tspan></text><text class="cls-7" transform="translate(203.72 236.14)">i<tspan class="cls-21" x="2.81" y="0">n</tspan><tspan class="cls-11" x="9.42" y="0">t</tspan><tspan x="13.32" y="0">e</tspan><tspan class="cls-17" x="19.33" y="0">r</tspan><tspan class="cls-18" x="23.3" y="0">nal</tspan><tspan x="1.62" y="14.4">models</tspan></text><line class="cls-14" x1="152.3" y1="214.72" x2="152.3" y2="221.97"/><line class="cls-15" x1="62.8" y1="218.35" x2="241.8" y2="218.35"/><rect class="cls-16" x="62.3" y="215.1" width="1" height="6.5"/><rect class="cls-16" x="241.3" y="215.1" width="1" height="6.5"/><text class="cls-4" transform="translate(62.3 296.33)">Social <tspan class="cls-23" x="45.45" y="0">a</tspan><tspan x="53.68" y="0">wareness</tspan></text><text class="cls-7" transform="translate(62.3 338.78)">none</text><text class="cls-7" transform="translate(136.19 338.78)">pa<tspan class="cls-8" x="12.61" y="0">r</tspan><tspan x="16.82" y="0">tial</tspan></text><text class="cls-7" transform="translate(194.81 338.78)"><tspan class="cls-9">e</tspan><tspan class="cls-10" x="5.98" y="0">x</tspan><tspan class="cls-11" x="11.69" y="0">t</tspan><tspan x="15.59" y="0">ensi</tspan><tspan class="cls-12" x="35.82" y="0">v</tspan><tspan class="cls-13" x="41.47" y="0">e</tspan></text><line class="cls-14" x1="152.3" y1="317.36" x2="152.3" y2="324.6"/><line class="cls-15" x1="62.8" y1="320.98" x2="241.8" y2="320.98"/><rect class="cls-16" x="62.3" y="317.73" width="1" height="6.5"/><rect class="cls-16" x="241.3" y="317.73" width="1" height="6.5"/><text class="cls-4" transform="translate(62.3 387.11)">Autono<tspan class="cls-24" x="53.94" y="0">m</tspan><tspan class="cls-6" x="67.12" y="0">y</tspan></text><text class="cls-7" transform="translate(62.3 429.56)">none</text><text class="cls-7" transform="translate(136.19 429.56)">pa<tspan class="cls-8" x="12.61" y="0">r</tspan><tspan x="16.82" y="0">tial</tspan></text><text class="cls-7" transform="translate(226.52 429.56)">full</text><line class="cls-14" x1="152.3" y1="408.14" x2="152.3" y2="415.39"/><line class="cls-15" x1="62.8" y1="411.76" x2="241.8" y2="411.76"/><rect class="cls-16" x="62.3" y="408.51" width="1" height="6.5"/><rect class="cls-16" x="241.3" y="408.51" width="1" height="6.5"/><rect class="cls-25" x="6.29" y="4.59" width="292.02" height="470.36" rx="25" ry="25"/></svg>