<svg id="Layer_1" data-name="Layer 1" xmlns="http://www.w3.org/2000/svg" viewBox="0 0 698.05 398.75"><defs><style>.cls-1,.cls-11{fill:none;}.cls-1{stroke:#6d6e71;}.cls-1,.cls-10,.cls-11{stroke-miterlimit:10;}.cls-2{font-size:21px;}.cls-2,.cls-4{fill:#231f20;font-family:Lato-Bold, Lato;font-weight:700;}.cls-3{letter-spacing:-0.02em;}.cls-4{font-size:16px;}.cls-5{font-size:12px;font-family:MyriadPro-Regular, Myriad Pro;}.cls-12,.cls-5{fill:#58595b;}.cls-6{letter-spacing:-0.01em;}.cls-7{letter-spacing:0em;}.cls-8{letter-spacing:0em;}.cls-9{letter-spacing:0.01em;}.cls-10{fill:#be1e2d;}.cls-10,.cls-11{stroke:#58595b;}.cls-13{letter-spacing:-0.01em;}.cls-14{letter-spacing:0em;}.cls-15{letter-spacing:-0.01em;}.cls-16{letter-spacing:0.02em;}.cls-17{letter-spacing:0.03em;}.cls-18{letter-spacing:-0.01em;}.cls-19{letter-spacing:0.01em;}.cls-20{letter-spacing:0.02em;}.cls-21{letter-spacing:0em;}.cls-22{letter-spacing:0em;}.cls-23{letter-spacing:0.01em;}</style></defs><title>solutionspace_blank</title><rect class="cls-1" x="5.18" y="4.66" width="686.58" height="470.39" rx="25" ry="25"/><text class="cls-2" transform="translate(296.78 45.42)">E<tspan class="cls-3" x="12.02" y="0">n</tspan><tspan x="23.58" y="0">vironment</tspan></text><text class="cls-4" transform="translate(134.88 115.52)">Situational flow</text><text class="cls-5" transform="translate(134.88 157.96)">p<tspan class="cls-6" x="6.83" y="0">r</tspan><tspan x="10.63" y="0">edefined</tspan></text><text class="cls-5" transform="translate(198.6 157.96)">somewh<tspan class="cls-7" x="42.85" y="0">a</tspan><tspan class="cls-8" x="48.59" y="0">t</tspan><tspan x="-1.29" y="10">p</tspan><tspan class="cls-6" x="5.54" y="10">r</tspan><tspan x="9.34" y="10">edefined</tspan></text><text class="cls-5" transform="translate(272.22 157.96)">f<tspan class="cls-6" x="3.5" y="0">r</tspan><tspan x="7.31" y="0">ees</tspan><tspan class="cls-9" x="24.08" y="0">t</tspan><tspan x="28.16" y="0">yle</tspan></text><line class="cls-10" x1="224.88" y1="136.54" x2="224.88" y2="143.79"/><line class="cls-11" x1="135.38" y1="140.17" x2="314.38" y2="140.17"/><rect class="cls-12" x="134.88" y="136.92" width="1" height="6.5"/><rect class="cls-12" x="313.88" y="136.92" width="1" height="6.5"/><text class="cls-4" transform="translate(134.88 222.55)">Simultaneous users</text><text class="cls-5" transform="translate(134.88 264.99)">one</text><text class="cls-5" transform="translate(211.62 264.99)">a <tspan class="cls-13" x="8.33" y="0">f</tspan><tspan class="cls-8" x="11.68" y="0">ew</tspan></text><text class="cls-5" transform="translate(279.97 264.99)">se<tspan class="cls-6" x="10.76" y="0">v</tspan><tspan x="16.42" y="0">e</tspan><tspan class="cls-14" x="22.43" y="0">r</tspan><tspan x="26.29" y="0">al</tspan></text><line class="cls-10" x1="224.88" y1="243.58" x2="224.88" y2="250.82"/><line class="cls-11" x1="135.38" y1="247.2" x2="314.38" y2="247.2"/><rect class="cls-12" x="134.88" y="243.95" width="1" height="6.5"/><rect class="cls-12" x="313.88" y="243.95" width="1" height="6.5"/><text class="cls-4" transform="translate(383.17 115.52)">Human facilitation</text><text class="cls-5" transform="translate(383.17 157.96)"><tspan class="cls-6">r</tspan><tspan x="3.8" y="0">equi</tspan><tspan class="cls-15" x="25.99" y="0">r</tspan><tspan class="cls-8" x="29.8" y="0">ed</tspan></text><text class="cls-5" transform="translate(457.06 157.96)">pa<tspan class="cls-16" x="12.61" y="0">r</tspan><tspan x="16.82" y="0">tial</tspan></text><text class="cls-5" transform="translate(537.25 157.96)">none</text><line class="cls-10" x1="473.17" y1="136.54" x2="473.17" y2="143.79"/><line class="cls-11" x1="383.67" y1="140.17" x2="562.67" y2="140.17"/><rect class="cls-12" x="383.17" y="136.92" width="1" height="6.5"/><rect class="cls-12" x="562.17" y="136.92" width="1" height="6.5"/><text class="cls-4" transform="translate(383.17 222.55)">Role of the robot</text><text class="cls-5" transform="translate(383.17 286.28)">se<tspan class="cls-17" x="10.76" y="0">r</tspan><tspan x="14.99" y="0">vi</tspan><tspan class="cls-18" x="23.57" y="0">c</tspan><tspan x="28.87" y="0">e</tspan></text><text class="cls-5" transform="translate(498.15 286.28)"><tspan class="cls-18">c</tspan><tspan class="cls-19" x="5.3" y="0">o</tspan><tspan class="cls-20" x="12.07" y="0">-</tspan><tspan x="15.97" y="0">ope</tspan><tspan class="cls-14" x="35.4" y="0">r</tspan><tspan class="cls-21" x="39.26" y="0">a</tspan><tspan x="45" y="0">tion</tspan></text><text class="cls-5" transform="translate(450.11 247.6)">autho<tspan class="cls-22" x="29.62" y="0">r</tspan><tspan x="33.59" y="0">i</tspan><tspan class="cls-23" x="36.4" y="0">t</tspan><tspan class="cls-8" x="40.48" y="0">y</tspan></text><text class="cls-5" transform="translate(458.31 360.93)">f<tspan class="cls-22" x="3.5" y="0">r</tspan><tspan x="7.48" y="0">iend</tspan></text><line class="cls-11" x1="473.14" y1="256.77" x2="473.14" y2="344.6"/><polygon class="cls-12" points="469.06 260.08 469.79 260.76 473.14 257.15 476.5 260.76 477.23 260.08 473.14 255.68 469.06 260.08"/><polygon class="cls-12" points="469.06 341.29 469.79 340.6 473.14 344.21 476.5 340.6 477.23 341.29 473.14 345.68 469.06 341.29"/><line class="cls-11" x1="384.26" y1="300.68" x2="562.09" y2="300.68"/><polygon class="cls-12" points="387.57 304.77 388.25 304.04 384.64 300.69 388.25 297.33 387.57 296.6 383.17 300.69 387.57 304.77"/><polygon class="cls-12" points="558.77 304.77 558.09 304.04 561.7 300.69 558.09 297.33 558.77 296.6 563.17 300.69 558.77 304.77"/></svg>