<svg id="Layer_1" data-name="Layer 1" xmlns="http://www.w3.org/2000/svg" viewBox="0 0 305.38 480.43"><defs><style>.cls-1{font-size:21px;}.cls-1,.cls-3{fill:#231f20;font-family:Lato-Bold, Lato;font-weight:700;}.cls-2{letter-spacing:-0.01em;}.cls-3{font-size:16px;}.cls-4{letter-spacing:-0.02em;}.cls-5{font-size:12px;font-family:MyriadPro-Regular, Myriad Pro;}.cls-15,.cls-26,.cls-5{fill:#58595b;}.cls-6{letter-spacing:-0.01em;}.cls-7{letter-spacing:0em;}.cls-8{letter-spacing:-0.01em;}.cls-9{letter-spacing:0em;}.cls-10{letter-spacing:0em;}.cls-11{letter-spacing:0em;}.cls-12{letter-spacing:-0.01em;}.cls-13{fill:#be1e2d;}.cls-13,.cls-14,.cls-21,.cls-26{stroke:#58595b;}.cls-13,.cls-14,.cls-21,.cls-26,.cls-27{stroke-miterlimit:10;}.cls-14,.cls-27{fill:none;}.cls-16{letter-spacing:-0.02em;}.cls-17{letter-spacing:0em;}.cls-18{letter-spacing:0em;}.cls-19{letter-spacing:0em;}.cls-20{letter-spacing:-0.01em;}.cls-21{fill:#fff;}.cls-22{letter-spacing:-0.01em;}.cls-23{letter-spacing:0em;}.cls-24{letter-spacing:-0.01em;}.cls-25{letter-spacing:0.01em;}.cls-26{stroke-width:0.75px;}.cls-27{stroke:#6d6e71;}</style></defs><title>solutionspace_blank</title><text class="cls-1" transform="translate(99.75 38.14)">Inte<tspan class="cls-2" x="37.88" y="0">r</tspan><tspan x="46.16" y="0">action</tspan></text><text class="cls-3" transform="translate(62.69 296.78)"><tspan class="cls-4">L</tspan><tspan x="7.97" y="0">eadership</tspan></text><text class="cls-5" transform="translate(62.69 339.22)"><tspan class="cls-6">r</tspan><tspan x="3.8" y="0">obo</tspan><tspan class="cls-7" x="23.81" y="0">t</tspan><tspan x="27.72" y="0">-led</tspan></text><text class="cls-5" transform="translate(131.45 339.22)">mutual /<tspan x="-1.16" y="10">al</tspan><tspan class="cls-8" x="7.45" y="10">t</tspan><tspan class="cls-9" x="11.35" y="10">e</tspan><tspan class="cls-10" x="17.36" y="10">r</tspan><tspan x="21.34" y="10">n</tspan><tspan class="cls-11" x="28" y="10">a</tspan><tspan class="cls-8" x="33.73" y="10">t</tspan><tspan class="cls-9" x="37.63" y="10">e</tspan></text><text class="cls-5" transform="translate(202.15 339.22)">use<tspan class="cls-12" x="17.38" y="0">r</tspan><tspan x="21.24" y="0">-led</tspan></text><line class="cls-13" x1="152.69" y1="317.8" x2="152.69" y2="325.05"/><line class="cls-14" x1="63.19" y1="321.43" x2="242.19" y2="321.43"/><rect class="cls-15" x="62.69" y="318.18" width="1" height="6.5"/><rect class="cls-15" x="241.69" y="318.18" width="1" height="6.5"/><text class="cls-3" transform="translate(62.69 387.56)">Goals</text><text class="cls-5" transform="translate(62.69 430.01)">task <tspan class="cls-8" x="0" y="14.4">c</tspan><tspan x="5.3" y="14.4">ompletion</tspan></text><text class="cls-5" transform="translate(137.2 430.01)">mi<tspan class="cls-16" x="12.82" y="0">x</tspan><tspan x="18.19" y="0">ed</tspan></text><text class="cls-5" transform="translate(185.28 430.01)"><tspan class="cls-17">e</tspan><tspan class="cls-18" x="5.98" y="0">xplo</tspan><tspan class="cls-12" x="27.78" y="0">r</tspan><tspan class="cls-19" x="31.64" y="0">a</tspan><tspan x="37.38" y="0">tion</tspan></text><line class="cls-13" x1="152.69" y1="408.59" x2="152.69" y2="415.83"/><line class="cls-14" x1="63.19" y1="412.21" x2="242.19" y2="412.21"/><rect class="cls-15" x="62.69" y="408.96" width="1" height="6.5"/><rect class="cls-15" x="241.69" y="408.96" width="1" height="6.5"/><text class="cls-3" transform="translate(62.69 102.15)">Modalities</text><text class="cls-5" transform="translate(82.23 134.96)"><tspan class="cls-20">v</tspan><tspan x="5.65" y="0">oi</tspan><tspan class="cls-8" x="15.05" y="0">c</tspan><tspan x="20.35" y="0">e / sounds</tspan></text><rect class="cls-21" x="62.69" y="124.66" width="14.74" height="14.74"/><text class="cls-5" transform="translate(82.23 156.5)">m<tspan class="cls-22" x="10.01" y="0">o</tspan><tspan class="cls-20" x="16.51" y="0">v</tspan><tspan x="22.16" y="0">eme</tspan><tspan class="cls-23" x="44.2" y="0">n</tspan><tspan x="50.81" y="0">t / gestu</tspan><tspan class="cls-24" x="92.04" y="0">r</tspan><tspan x="95.84" y="0">es</tspan></text><rect class="cls-21" x="62.69" y="146.2" width="14.74" height="14.74"/><text class="cls-5" transform="translate(82.23 178.05)">di<tspan class="cls-8" x="9.58" y="0">g</tspan><tspan class="cls-18" x="16.21" y="0">ital visuals</tspan></text><rect class="cls-21" x="62.69" y="167.75" width="14.74" height="14.74"/><text class="cls-5" transform="translate(83.56 199.59)">ta<tspan class="cls-25" x="9.76" y="0">c</tspan><tspan class="cls-9" x="15.29" y="0">tile</tspan></text><rect class="cls-21" x="62.69" y="189.29" width="14.74" height="14.74"/><text class="cls-5" transform="translate(82.22 221.14)">facial <tspan class="cls-17" x="28.63" y="0">e</tspan><tspan x="34.61" y="0">xp</tspan><tspan class="cls-20" x="46.99" y="0">r</tspan><tspan x="50.8" y="0">essions</tspan></text><rect class="cls-14" x="62.69" y="210.83" width="14.74" height="14.74"/><rect class="cls-21" x="62.69" y="232.38" width="14.74" height="14.74"/><line class="cls-26" x1="82.79" y1="247.11" x2="182.79" y2="247.11"/><rect class="cls-27" x="6.68" y="5.03" width="292.02" height="470.36" rx="25" ry="25"/></svg>