<svg id="Layer_1" data-name="Layer 1" xmlns="http://www.w3.org/2000/svg" viewBox="0 0 655.91 1413.54"><defs><style>.cls-1{font-size:24px;}.cls-1,.cls-3,.cls-44,.cls-46,.cls-5{fill:#231f20;font-family:Lato-Bold, Lato;font-weight:700;}.cls-16,.cls-2{fill:none;}.cls-2{stroke:#6d6e71;}.cls-15,.cls-16,.cls-2,.cls-23,.cls-28{stroke-miterlimit:10;}.cls-3,.cls-44{font-size:21px;}.cls-4{letter-spacing:-0.01em;}.cls-46,.cls-5{font-size:16px;}.cls-6{letter-spacing:-0.02em;}.cls-7{font-size:12px;font-family:MyriadPro-Regular, Myriad Pro;}.cls-17,.cls-28,.cls-7{fill:#58595b;}.cls-8{letter-spacing:-0.01em;}.cls-9{letter-spacing:0em;}.cls-10{letter-spacing:-0.01em;}.cls-11{letter-spacing:0em;}.cls-12{letter-spacing:0em;}.cls-13{letter-spacing:0em;}.cls-14{letter-spacing:-0.01em;}.cls-15{fill:#be1e2d;}.cls-15,.cls-16,.cls-23,.cls-28{stroke:#58595b;}.cls-18{letter-spacing:-0.02em;}.cls-19{letter-spacing:0em;}.cls-20{letter-spacing:0em;}.cls-21{letter-spacing:0em;}.cls-22{letter-spacing:-0.01em;}.cls-23{fill:#fff;}.cls-24{letter-spacing:-0.01em;}.cls-25{letter-spacing:0em;}.cls-26{letter-spacing:-0.01em;}.cls-27{letter-spacing:0.01em;}.cls-28{stroke-width:0.75px;}.cls-29{letter-spacing:-0.02em;}.cls-30{letter-spacing:0.01em;}.cls-31{letter-spacing:-0.01em;}.cls-32{letter-spacing:0.02em;}.cls-33{letter-spacing:0.03em;}.cls-34{letter-spacing:0.01em;}.cls-35{letter-spacing:0.02em;}.cls-36{letter-spacing:0.01em;}.cls-37{letter-spacing:0em;}.cls-38{letter-spacing:-0.03em;}.cls-39{letter-spacing:0em;}.cls-40{letter-spacing:0em;}.cls-41{letter-spacing:-0.01em;}.cls-42{letter-spacing:-0.01em;}.cls-43{letter-spacing:-0.02em;}.cls-44{letter-spacing:-0.03em;}.cls-45{letter-spacing:0em;}.cls-46{letter-spacing:-0.06em;}.cls-47{letter-spacing:-0.12em;}.cls-48{letter-spacing:-0.02em;}.cls-49{letter-spacing:0.03em;}.cls-50{letter-spacing:-0.01em;}.cls-51{letter-spacing:0.01em;}</style></defs><title>solutionspace_blank</title><text class="cls-1" transform="translate(250.32 31.38)">Solution space</text><rect class="cls-2" x="15.41" y="71.34" width="623.5" height="1329.54" rx="25" ry="25"/><text class="cls-3" transform="translate(122.39 945.19)">Inte<tspan class="cls-4" x="37.88" y="0">r</tspan><tspan x="46.16" y="0">action</tspan></text><text class="cls-5" transform="translate(85.33 1203.82)"><tspan class="cls-6">L</tspan><tspan x="7.97" y="0">eadership</tspan></text><text class="cls-7" transform="translate(85.33 1246.27)"><tspan class="cls-8">r</tspan><tspan x="3.8" y="0">obo</tspan><tspan class="cls-9" x="23.81" y="0">t</tspan><tspan x="27.72" y="0">-led</tspan></text><text class="cls-7" transform="translate(154.09 1246.27)">mutual /<tspan x="-1.16" y="10">al</tspan><tspan class="cls-10" x="7.45" y="10">t</tspan><tspan class="cls-11" x="11.35" y="10">e</tspan><tspan class="cls-12" x="17.36" y="10">r</tspan><tspan x="21.34" y="10">n</tspan><tspan class="cls-13" x="28" y="10">a</tspan><tspan class="cls-10" x="33.73" y="10">t</tspan><tspan class="cls-11" x="37.63" y="10">e</tspan></text><text class="cls-7" transform="translate(224.8 1246.27)">use<tspan class="cls-14" x="17.38" y="0">r</tspan><tspan x="21.24" y="0">-led</tspan></text><line class="cls-15" x1="175.33" y1="1224.85" x2="175.33" y2="1232.09"/><line class="cls-16" x1="85.83" y1="1228.47" x2="264.83" y2="1228.47"/><rect class="cls-17" x="85.33" y="1225.22" width="1" height="6.5"/><rect class="cls-17" x="264.33" y="1225.22" width="1" height="6.5"/><text class="cls-5" transform="translate(85.33 1294.6)">Goals</text><text class="cls-7" transform="translate(85.33 1337.05)">task <tspan class="cls-10" x="0" y="14.4">c</tspan><tspan x="5.3" y="14.4">ompletion</tspan></text><text class="cls-7" transform="translate(159.85 1337.05)">mi<tspan class="cls-18" x="12.82" y="0">x</tspan><tspan x="18.19" y="0">ed</tspan></text><text class="cls-7" transform="translate(207.93 1337.05)"><tspan class="cls-19">e</tspan><tspan class="cls-20" x="5.98" y="0">xplo</tspan><tspan class="cls-14" x="27.78" y="0">r</tspan><tspan class="cls-21" x="31.64" y="0">a</tspan><tspan x="37.38" y="0">tion</tspan></text><line class="cls-15" x1="175.33" y1="1315.63" x2="175.33" y2="1322.88"/><line class="cls-16" x1="85.83" y1="1319.26" x2="264.83" y2="1319.26"/><rect class="cls-17" x="85.33" y="1316.01" width="1" height="6.5"/><rect class="cls-17" x="264.33" y="1316.01" width="1" height="6.5"/><text class="cls-5" transform="translate(85.33 1009.2)">Modalities</text><text class="cls-7" transform="translate(104.87 1042.01)"><tspan class="cls-22">v</tspan><tspan x="5.65" y="0">oi</tspan><tspan class="cls-10" x="15.05" y="0">c</tspan><tspan x="20.35" y="0">e / sounds</tspan></text><rect class="cls-23" x="85.33" y="1031.7" width="14.74" height="14.74"/><text class="cls-7" transform="translate(104.87 1063.55)">m<tspan class="cls-24" x="10.01" y="0">o</tspan><tspan class="cls-22" x="16.51" y="0">v</tspan><tspan x="22.16" y="0">eme</tspan><tspan class="cls-25" x="44.2" y="0">n</tspan><tspan x="50.81" y="0">t / gestu</tspan><tspan class="cls-26" x="92.04" y="0">r</tspan><tspan x="95.84" y="0">es</tspan></text><rect class="cls-23" x="85.33" y="1053.25" width="14.74" height="14.74"/><text class="cls-7" transform="translate(104.87 1085.09)">di<tspan class="cls-10" x="9.58" y="0">g</tspan><tspan class="cls-20" x="16.21" y="0">ital visuals</tspan></text><rect class="cls-23" x="85.33" y="1074.79" width="14.74" height="14.74"/><text class="cls-7" transform="translate(106.21 1106.64)">ta<tspan class="cls-27" x="9.76" y="0">c</tspan><tspan class="cls-11" x="15.29" y="0">tile</tspan></text><rect class="cls-23" x="85.33" y="1096.33" width="14.74" height="14.74"/><text class="cls-7" transform="translate(104.87 1128.18)">facial <tspan class="cls-19" x="28.63" y="0">e</tspan><tspan x="34.61" y="0">xp</tspan><tspan class="cls-22" x="46.99" y="0">r</tspan><tspan x="50.8" y="0">essions</tspan></text><rect class="cls-16" x="85.33" y="1117.88" width="14.74" height="14.74"/><rect class="cls-23" x="85.33" y="1139.42" width="14.74" height="14.74"/><line class="cls-28" x1="105.44" y1="1154.16" x2="205.44" y2="1154.16"/><rect class="cls-2" x="29.32" y="912.08" width="292.02" height="470.36" rx="25" ry="25"/><text class="cls-3" transform="translate(273 107.9)">E<tspan class="cls-29" x="12.02" y="0">n</tspan><tspan x="23.58" y="0">vironment</tspan></text><text class="cls-5" transform="translate(111.1 178)">Situational flow</text><text class="cls-7" transform="translate(111.1 220.44)">p<tspan class="cls-8" x="6.83" y="0">r</tspan><tspan x="10.63" y="0">edefined</tspan></text><text class="cls-7" transform="translate(174.82 220.44)">somewh<tspan class="cls-13" x="42.85" y="0">a</tspan><tspan class="cls-11" x="48.59" y="0">t</tspan><tspan x="-1.29" y="10">p</tspan><tspan class="cls-8" x="5.54" y="10">r</tspan><tspan x="9.34" y="10">edefined</tspan></text><text class="cls-7" transform="translate(248.44 220.44)">f<tspan class="cls-8" x="3.5" y="0">r</tspan><tspan x="7.31" y="0">ees</tspan><tspan class="cls-30" x="24.08" y="0">t</tspan><tspan x="28.16" y="0">yle</tspan></text><line class="cls-15" x1="201.1" y1="199.03" x2="201.1" y2="206.27"/><line class="cls-16" x1="111.6" y1="202.65" x2="290.6" y2="202.65"/><rect class="cls-17" x="111.1" y="199.4" width="1" height="6.5"/><rect class="cls-17" x="290.1" y="199.4" width="1" height="6.5"/><text class="cls-5" transform="translate(111.1 285.03)">Simultaneous users</text><text class="cls-7" transform="translate(111.1 327.47)">one</text><text class="cls-7" transform="translate(187.84 327.47)">a <tspan class="cls-31" x="8.33" y="0">f</tspan><tspan class="cls-11" x="11.68" y="0">ew</tspan></text><text class="cls-7" transform="translate(256.19 327.47)">se<tspan class="cls-8" x="10.76" y="0">v</tspan><tspan x="16.42" y="0">e</tspan><tspan class="cls-9" x="22.43" y="0">r</tspan><tspan x="26.29" y="0">al</tspan></text><line class="cls-15" x1="201.1" y1="306.06" x2="201.1" y2="313.3"/><line class="cls-16" x1="111.6" y1="309.68" x2="290.6" y2="309.68"/><rect class="cls-17" x="111.1" y="306.43" width="1" height="6.5"/><rect class="cls-17" x="290.1" y="306.43" width="1" height="6.5"/><text class="cls-5" transform="translate(359.39 178)">Human facilitation</text><text class="cls-7" transform="translate(359.39 220.44)"><tspan class="cls-8">r</tspan><tspan x="3.8" y="0">equi</tspan><tspan class="cls-22" x="25.99" y="0">r</tspan><tspan class="cls-11" x="29.8" y="0">ed</tspan></text><text class="cls-7" transform="translate(433.28 220.44)">pa<tspan class="cls-32" x="12.61" y="0">r</tspan><tspan x="16.82" y="0">tial</tspan></text><text class="cls-7" transform="translate(513.47 220.44)">none</text><line class="cls-15" x1="449.39" y1="199.03" x2="449.39" y2="206.27"/><line class="cls-16" x1="359.89" y1="202.65" x2="538.89" y2="202.65"/><rect class="cls-17" x="359.39" y="199.4" width="1" height="6.5"/><rect class="cls-17" x="538.39" y="199.4" width="1" height="6.5"/><text class="cls-5" transform="translate(359.39 285.03)">Role of the robot</text><text class="cls-7" transform="translate(359.39 348.76)">se<tspan class="cls-33" x="10.76" y="0">r</tspan><tspan x="14.99" y="0">vi</tspan><tspan class="cls-10" x="23.57" y="0">c</tspan><tspan x="28.87" y="0">e</tspan></text><text class="cls-7" transform="translate(474.36 348.76)"><tspan class="cls-10">c</tspan><tspan class="cls-34" x="5.3" y="0">o</tspan><tspan class="cls-35" x="12.07" y="0">-</tspan><tspan x="15.97" y="0">ope</tspan><tspan class="cls-9" x="35.4" y="0">r</tspan><tspan class="cls-25" x="39.26" y="0">a</tspan><tspan x="45" y="0">tion</tspan></text><text class="cls-7" transform="translate(426.33 310.08)">autho<tspan class="cls-12" x="29.62" y="0">r</tspan><tspan x="33.59" y="0">i</tspan><tspan class="cls-36" x="36.4" y="0">t</tspan><tspan class="cls-11" x="40.48" y="0">y</tspan></text><text class="cls-7" transform="translate(434.53 423.41)">f<tspan class="cls-12" x="3.5" y="0">r</tspan><tspan x="7.48" y="0">iend</tspan></text><line class="cls-16" x1="449.36" y1="319.25" x2="449.36" y2="407.08"/><polygon class="cls-17" points="445.27 322.56 446.01 323.24 449.36 319.63 452.72 323.24 453.45 322.56 449.36 318.16 445.27 322.56"/><polygon class="cls-17" points="445.27 403.77 446.01 403.08 449.36 406.7 452.72 403.08 453.45 403.77 449.36 408.16 445.27 403.77"/><line class="cls-16" x1="360.48" y1="363.16" x2="538.31" y2="363.16"/><polygon class="cls-17" points="363.79 367.25 364.47 366.52 360.86 363.17 364.47 359.81 363.79 359.07 359.39 363.17 363.79 367.25"/><polygon class="cls-17" points="534.99 367.25 534.31 366.52 537.92 363.17 534.31 359.81 534.99 359.07 539.39 363.17 534.99 367.25"/><text class="cls-3" transform="translate(440.32 945.19)">Beh<tspan class="cls-29" x="36.84" y="0">a</tspan><tspan class="cls-37" x="47.46" y="0">vior</tspan></text><text class="cls-5" transform="translate(390.69 1010.24)">Cont<tspan class="cls-38" x="35.11" y="0">e</tspan><tspan class="cls-39" x="43.18" y="0">xtual adaptation</tspan></text><text class="cls-7" transform="translate(390.69 1052.69)">none</text><text class="cls-7" transform="translate(464.59 1052.69)">pa<tspan class="cls-32" x="12.61" y="0">r</tspan><tspan x="16.82" y="0">tial</tspan></text><text class="cls-7" transform="translate(523.21 1052.69)"><tspan class="cls-19">e</tspan><tspan class="cls-27" x="5.98" y="0">x</tspan><tspan class="cls-10" x="11.69" y="0">t</tspan><tspan x="15.59" y="0">ensi</tspan><tspan class="cls-22" x="35.82" y="0">v</tspan><tspan class="cls-11" x="41.47" y="0">e</tspan></text><line class="cls-15" x1="480.69" y1="1031.27" x2="480.69" y2="1038.51"/><line class="cls-16" x1="391.19" y1="1034.89" x2="570.19" y2="1034.89"/><rect class="cls-17" x="390.69" y="1031.64" width="1" height="6.5"/><rect class="cls-17" x="569.69" y="1031.64" width="1" height="6.5"/><text class="cls-5" transform="translate(390.69 1101.19)">Motivation</text><text class="cls-7" transform="translate(390.69 1143.63)"><tspan class="cls-19">e</tspan><tspan class="cls-27" x="5.98" y="0">x</tspan><tspan class="cls-10" x="11.69" y="0">t</tspan><tspan x="15.59" y="0">e</tspan><tspan class="cls-40" x="21.6" y="0">r</tspan><tspan class="cls-20" x="25.57" y="0">nal /</tspan><tspan x="0" y="14.4">e</tspan><tspan class="cls-41" x="6.01" y="14.4">n</tspan><tspan class="cls-20" x="12.52" y="14.4">vi</tspan><tspan class="cls-8" x="21.1" y="14.4">r</tspan><tspan x="24.9" y="14.4">onme</tspan><tspan class="cls-25" x="54.17" y="14.4">n</tspan><tspan x="60.78" y="14.4">t</tspan></text><text class="cls-7" transform="translate(465.21 1143.63)">mi<tspan class="cls-18" x="12.82" y="0">x</tspan><tspan x="18.19" y="0">ed</tspan></text><text class="cls-7" transform="translate(532.12 1143.63)">i<tspan class="cls-25" x="2.81" y="0">n</tspan><tspan class="cls-10" x="9.42" y="0">t</tspan><tspan x="13.32" y="0">e</tspan><tspan class="cls-40" x="19.33" y="0">r</tspan><tspan class="cls-20" x="23.3" y="0">nal</tspan><tspan x="1.62" y="14.4">models</tspan></text><line class="cls-15" x1="480.69" y1="1122.22" x2="480.69" y2="1129.46"/><line class="cls-16" x1="391.19" y1="1125.84" x2="570.19" y2="1125.84"/><rect class="cls-17" x="390.69" y="1122.59" width="1" height="6.5"/><rect class="cls-17" x="569.69" y="1122.59" width="1" height="6.5"/><text class="cls-5" transform="translate(390.69 1203.82)">Social <tspan class="cls-42" x="45.45" y="0">a</tspan><tspan x="53.68" y="0">wareness</tspan></text><text class="cls-7" transform="translate(390.69 1246.27)">none</text><text class="cls-7" transform="translate(464.58 1246.27)">pa<tspan class="cls-32" x="12.61" y="0">r</tspan><tspan x="16.82" y="0">tial</tspan></text><text class="cls-7" transform="translate(523.21 1246.27)"><tspan class="cls-19">e</tspan><tspan class="cls-27" x="5.98" y="0">x</tspan><tspan class="cls-10" x="11.69" y="0">t</tspan><tspan x="15.59" y="0">ensi</tspan><tspan class="cls-22" x="35.82" y="0">v</tspan><tspan class="cls-11" x="41.47" y="0">e</tspan></text><line class="cls-15" x1="480.69" y1="1224.85" x2="480.69" y2="1232.1"/><line class="cls-16" x1="391.19" y1="1228.47" x2="570.19" y2="1228.47"/><rect class="cls-17" x="390.69" y="1225.22" width="1" height="6.5"/><rect class="cls-17" x="569.69" y="1225.22" width="1" height="6.5"/><text class="cls-5" transform="translate(390.69 1294.6)">Autono<tspan class="cls-43" x="53.94" y="0">m</tspan><tspan class="cls-39" x="67.12" y="0">y</tspan></text><text class="cls-7" transform="translate(390.69 1337.05)">none</text><text class="cls-7" transform="translate(464.58 1337.05)">pa<tspan class="cls-32" x="12.61" y="0">r</tspan><tspan x="16.82" y="0">tial</tspan></text><text class="cls-7" transform="translate(554.91 1337.05)">full</text><line class="cls-15" x1="480.69" y1="1315.63" x2="480.69" y2="1322.88"/><line class="cls-16" x1="391.19" y1="1319.26" x2="570.19" y2="1319.26"/><rect class="cls-17" x="390.69" y="1316.01" width="1" height="6.5"/><rect class="cls-17" x="569.69" y="1316.01" width="1" height="6.5"/><rect class="cls-2" x="334.68" y="912.08" width="292.02" height="470.36" rx="25" ry="25"/><rect class="cls-2" x="65.96" y="442.82" width="518.67" height="453.43" rx="25" ry="25"/><text class="cls-44" transform="translate(301.16 472.93)">F<tspan class="cls-45" x="11.12" y="0">orm</tspan></text><text class="cls-46" transform="translate(361.52 548.82)">V<tspan class="cls-39" x="10.38" y="0">oice</tspan></text><text class="cls-7" transform="translate(361.52 589.26)">desc<tspan class="cls-40" x="22.91" y="0">r</tspan><tspan class="cls-20" x="26.88" y="0">iption</tspan></text><line class="cls-15" x1="361.52" y1="576.97" x2="541.52" y2="576.97"/><text class="cls-5" transform="translate(361.52 641.47)">Sounds</text><text class="cls-7" transform="translate(361.52 689.92)">desc<tspan class="cls-40" x="22.91" y="0">r</tspan><tspan class="cls-20" x="26.88" y="0">iption</tspan></text><line class="cls-15" x1="361.52" y1="678.62" x2="541.52" y2="678.62"/><text class="cls-5" transform="translate(361.52 728.12)"><tspan class="cls-47">T</tspan><tspan x="7.57" y="0">actile</tspan></text><text class="cls-7" transform="translate(361.52 769.57)">desc<tspan class="cls-40" x="22.91" y="0">r</tspan><tspan class="cls-20" x="26.88" y="0">iption</tspan></text><line class="cls-15" x1="361.52" y1="757.27" x2="541.52" y2="757.27"/><text class="cls-5" transform="translate(361.52 820.78)">Olfactory</text><text class="cls-7" transform="translate(361.52 860.22)">desc<tspan class="cls-40" x="22.91" y="0">r</tspan><tspan class="cls-20" x="26.88" y="0">iption</tspan></text><line class="cls-15" x1="361.52" y1="847.92" x2="541.52" y2="847.92"/><text class="cls-5" transform="translate(109.07 747.67)">M<tspan class="cls-48" x="14.88" y="0">ov</tspan><tspan x="31.98" y="0">ement</tspan></text><text class="cls-7" transform="translate(109.07 790.11)">machin<tspan class="cls-49" x="37.3" y="0">e</tspan><tspan class="cls-11" x="43.64" y="0">-like</tspan></text><text class="cls-7" transform="translate(182.81 790.11)"><tspan class="cls-31">h</tspan><tspan x="6.5" y="0">yb</tspan><tspan class="cls-12" x="18.98" y="0">r</tspan><tspan x="22.96" y="0">id</tspan></text><text class="cls-7" transform="translate(256.79 790.11)">li<tspan class="cls-31" x="5.64" y="0">f</tspan><tspan class="cls-11" x="8.99" y="0">elike</tspan></text><line class="cls-15" x1="199.07" y1="768.7" x2="199.07" y2="775.94"/><line class="cls-16" x1="109.57" y1="772.32" x2="288.57" y2="772.32"/><rect class="cls-17" x="109.07" y="769.07" width="1" height="6.5"/><rect class="cls-17" x="288.07" y="769.07" width="1" height="6.5"/><text class="cls-5" transform="translate(109.07 550.82)">Appe<tspan class="cls-50" x="38.01" y="0">r</tspan><tspan x="44.31" y="0">ance</tspan></text><text class="cls-7" transform="translate(109.07 614.55)">machin<tspan class="cls-49" x="37.3" y="0">e</tspan><tspan class="cls-11" x="43.64" y="0">-like</tspan></text><text class="cls-7" transform="translate(256.79 614.55)">li<tspan class="cls-31" x="5.64" y="0">f</tspan><tspan class="cls-11" x="8.99" y="0">elike</tspan></text><text class="cls-7" transform="translate(154.53 575.87)">a<tspan class="cls-13" x="5.78" y="0">n</tspan><tspan x="12.4" y="0">th</tspan><tspan class="cls-22" x="23.03" y="0">r</tspan><tspan class="cls-11" x="26.83" y="0">opomo</tspan><tspan class="cls-12" x="63.43" y="0">r</tspan><tspan x="67.4" y="0">phic</tspan></text><text class="cls-7" transform="translate(178.83 689.21)">abst<tspan class="cls-9" x="21.34" y="0">r</tspan><tspan class="cls-20" x="25.2" y="0">a</tspan><tspan class="cls-51" x="30.98" y="0">c</tspan><tspan x="36.52" y="0">t</tspan></text><line class="cls-16" x1="199.04" y1="585.04" x2="199.04" y2="672.87"/><polygon class="cls-17" points="194.95 588.35 195.69 589.03 199.04 585.42 202.4 589.03 203.13 588.35 199.04 583.96 194.95 588.35"/><polygon class="cls-17" points="194.95 669.56 195.69 668.88 199.04 672.49 202.4 668.88 203.13 669.56 199.04 673.96 194.95 669.56"/><line class="cls-16" x1="110.15" y1="628.95" x2="287.99" y2="628.95"/><polygon class="cls-17" points="113.47 633.04 114.15 632.31 110.54 628.96 114.15 625.6 113.47 624.87 109.07 628.96 113.47 633.04"/><polygon class="cls-17" points="284.67 633.04 283.99 632.31 287.6 628.96 283.99 625.6 284.67 624.87 289.07 628.96 284.67 633.04"/></svg>