<svg id="Layer_1" data-name="Layer 1" xmlns="http://www.w3.org/2000/svg" viewBox="0 0 531.92 467.21"><defs><style>.cls-1,.cls-17{fill:none;}.cls-1{stroke:#6d6e71;}.cls-1,.cls-17,.cls-9{stroke-miterlimit:10;}.cls-2{font-size:21px;letter-spacing:-0.03em;}.cls-10,.cls-2,.cls-4{fill:#231f20;font-family:Lato-Bold, Lato;font-weight:700;}.cls-3{letter-spacing:0em;}.cls-10,.cls-4{font-size:16px;}.cls-4{letter-spacing:-0.06em;}.cls-5{letter-spacing:0em;}.cls-6{font-size:12px;font-family:MyriadPro-Regular, Myriad Pro;}.cls-18,.cls-6{fill:#58595b;}.cls-7{letter-spacing:0em;}.cls-8{letter-spacing:0em;}.cls-9{fill:#be1e2d;}.cls-17,.cls-9{stroke:#58595b;}.cls-11{letter-spacing:-0.12em;}.cls-12{letter-spacing:-0.02em;}.cls-13{letter-spacing:0.03em;}.cls-14{letter-spacing:0em;}.cls-15{letter-spacing:-0.01em;}.cls-16{letter-spacing:0em;}.cls-19{letter-spacing:-0.01em;}.cls-20{letter-spacing:0em;}.cls-21{letter-spacing:-0.01em;}.cls-22{letter-spacing:0em;}.cls-23{letter-spacing:0.01em;}</style></defs><title>solutionspace_blank</title><rect class="cls-1" x="6.63" y="6.89" width="518.67" height="453.43" rx="25" ry="25"/><text class="cls-2" transform="translate(241.82 37)">F<tspan class="cls-3" x="11.12" y="0">orm</tspan></text><text class="cls-4" transform="translate(302.18 112.88)">V<tspan class="cls-5" x="10.38" y="0">oice</tspan></text><text class="cls-6" transform="translate(302.18 153.33)">desc<tspan class="cls-7" x="22.91" y="0">r</tspan><tspan class="cls-8" x="26.88" y="0">iption</tspan></text><line class="cls-9" x1="302.18" y1="141.03" x2="482.18" y2="141.03"/><text class="cls-10" transform="translate(302.18 205.54)">Sounds</text><text class="cls-6" transform="translate(302.18 253.98)">desc<tspan class="cls-7" x="22.91" y="0">r</tspan><tspan class="cls-8" x="26.88" y="0">iption</tspan></text><line class="cls-9" x1="302.18" y1="242.68" x2="482.18" y2="242.68"/><text class="cls-10" transform="translate(302.18 292.19)"><tspan class="cls-11">T</tspan><tspan x="7.57" y="0">actile</tspan></text><text class="cls-6" transform="translate(302.18 333.64)">desc<tspan class="cls-7" x="22.91" y="0">r</tspan><tspan class="cls-8" x="26.88" y="0">iption</tspan></text><line class="cls-9" x1="302.18" y1="321.34" x2="482.18" y2="321.34"/><text class="cls-10" transform="translate(302.18 384.84)">Olfactory</text><text class="cls-6" transform="translate(302.19 424.29)">desc<tspan class="cls-7" x="22.91" y="0">r</tspan><tspan class="cls-8" x="26.88" y="0">iption</tspan></text><line class="cls-9" x1="302.18" y1="411.99" x2="482.18" y2="411.99"/><text class="cls-10" transform="translate(49.74 311.73)">M<tspan class="cls-12" x="14.88" y="0">ov</tspan><tspan x="31.98" y="0">ement</tspan></text><text class="cls-6" transform="translate(49.74 354.18)">machin<tspan class="cls-13" x="37.3" y="0">e</tspan><tspan class="cls-14" x="43.64" y="0">-like</tspan></text><text class="cls-6" transform="translate(123.47 354.18)"><tspan class="cls-15">h</tspan><tspan x="6.5" y="0">yb</tspan><tspan class="cls-16" x="18.98" y="0">r</tspan><tspan x="22.96" y="0">id</tspan></text><text class="cls-6" transform="translate(197.46 354.18)">li<tspan class="cls-15" x="5.64" y="0">f</tspan><tspan class="cls-14" x="8.99" y="0">elike</tspan></text><line class="cls-9" x1="139.74" y1="332.76" x2="139.74" y2="340.01"/><line class="cls-17" x1="50.24" y1="336.38" x2="229.24" y2="336.38"/><rect class="cls-18" x="49.74" y="333.13" width="1" height="6.5"/><rect class="cls-18" x="228.74" y="333.13" width="1" height="6.5"/><text class="cls-10" transform="translate(49.74 114.88)">Appe<tspan class="cls-19" x="38.01" y="0">r</tspan><tspan x="44.31" y="0">ance</tspan></text><text class="cls-6" transform="translate(49.74 178.61)">machin<tspan class="cls-13" x="37.3" y="0">e</tspan><tspan class="cls-14" x="43.64" y="0">-like</tspan></text><text class="cls-6" transform="translate(197.46 178.61)">li<tspan class="cls-15" x="5.64" y="0">f</tspan><tspan class="cls-14" x="8.99" y="0">elike</tspan></text><text class="cls-6" transform="translate(95.2 139.94)">a<tspan class="cls-20" x="5.78" y="0">n</tspan><tspan x="12.4" y="0">th</tspan><tspan class="cls-21" x="23.03" y="0">r</tspan><tspan class="cls-14" x="26.83" y="0">opomo</tspan><tspan class="cls-16" x="63.43" y="0">r</tspan><tspan x="67.4" y="0">phic</tspan></text><text class="cls-6" transform="translate(119.49 253.27)">abst<tspan class="cls-22" x="21.34" y="0">r</tspan><tspan class="cls-8" x="25.2" y="0">a</tspan><tspan class="cls-23" x="30.98" y="0">c</tspan><tspan x="36.52" y="0">t</tspan></text><line class="cls-17" x1="139.71" y1="149.11" x2="139.71" y2="236.94"/><polygon class="cls-18" points="135.62 152.42 136.35 153.1 139.71 149.49 143.06 153.1 143.8 152.42 139.71 148.02 135.62 152.42"/><polygon class="cls-18" points="135.62 233.62 136.35 232.94 139.71 236.55 143.06 232.94 143.8 233.62 139.71 238.02 135.62 233.62"/><line class="cls-17" x1="50.82" y1="193.02" x2="228.65" y2="193.02"/><polygon class="cls-18" points="54.13 197.11 54.82 196.38 51.2 193.02 54.82 189.66 54.13 188.93 49.74 193.02 54.13 197.11"/><polygon class="cls-18" points="225.34 197.11 224.66 196.38 228.27 193.02 224.66 189.66 225.34 188.93 229.74 193.02 225.34 197.11"/></svg>