<?xml version="1.0" encoding="utf-8"?>
<!-- Generator: Adobe Illustrator 18.1.1, SVG Export Plug-In . SVG Version: 6.00 Build 0)  -->
<!DOCTYPE svg PUBLIC "-//W3C//DTD SVG 1.1//EN" "http://www.w3.org/Graphics/SVG/1.1/DTD/svg11.dtd">
<svg version="1.1" id="Layer_2" xmlns="http://www.w3.org/2000/svg" xmlns:xlink="http://www.w3.org/1999/xlink" x="0px" y="0px"
	 viewBox="0 0 65.7 65.7" enable-background="new 0 0 65.7 65.7" xml:space="preserve">
<rect x="0" y="0" width="65.7" height="65.7"/>
<path fill="#FFFFFF" d="M2.8,40.8v-14h1v-3h1v-3h1v-2h1v-2h1v-1h1v-1h1v-2h-1v-1h-1v-1h-1v-1h-1v-1h-1v-1h-1v-3h1v-1h6v1h2v1h2v1h5
	v-1h3v-1h3v-1h14v1h3v1h3v1h2v1h2v1h1v1h1v1h1v1h1v1h1v1c0,0,1.1-0.1,1,0c-0.1,0.1,0,1,0,1h1v1h1v1h1v2h1v2h1v3h1v3l1,0.1v13.9h-1v3
	h-1v3h-1v2h-1v2h-1v1h-1v1h-1v1h-1v1h-1v1h-1v1h-1v1h-1v1h-1v1h-2v1h-2v1h-3v1h-3v1h-14v-1h-3v-1h-3v-1h-2v-1h-2v-1h-1v-1h-1v-1h-1
	v-1h-1v-1h-1v-1h-1v-1h-1v-1h-1v-1h-1v-2h-1v-2h-1v-3h-1v-3H2.8z"/>
<g>
	<polygon fill="#329E41" points="5.8,39.8 5.8,27.8 6.8,27.8 6.8,24.8 7.8,24.8 7.8,21.8 8.8,21.8 8.8,19.8 9.8,19.8 9.8,17.8 
		10.8,17.8 10.8,16.8 11.8,16.8 11.8,15.8 12.8,15.8 12.8,14.8 13.8,14.8 13.8,13.8 14.8,13.8 14.8,12.8 15.8,12.8 15.8,11.8 
		16.8,11.8 16.8,10.8 18.8,10.8 18.8,9.8 20.8,9.8 20.8,8.8 23.8,8.8 23.8,7.8 26.8,7.8 26.8,6.8 38.8,6.8 38.8,7.8 41.8,7.8 
		41.8,8.8 44.8,8.8 44.8,9.8 46.8,9.8 46.8,10.8 48.8,10.8 48.8,11.8 49.8,11.8 49.8,12.8 50.8,12.8 50.8,13.8 51.8,13.8 51.8,14.8 
		52.8,14.8 52.8,15.8 53.8,15.8 53.8,16.8 54.8,16.8 54.8,17.8 55.8,17.8 55.8,19.8 56.8,19.8 56.8,21.8 57.8,21.8 57.8,24.8 
		58.8,24.8 58.8,27.8 59.8,27.8 59.8,39.8 58.8,39.8 58.8,42.8 57.8,42.8 57.8,45.8 56.8,45.8 56.8,47.8 55.8,47.8 55.8,49.8 
		54.8,49.8 54.8,50.8 53.8,50.8 53.8,51.8 52.8,51.8 52.8,52.8 51.8,52.8 51.8,53.8 50.8,53.8 50.8,54.8 49.8,54.8 49.8,55.8 
		48.8,55.8 48.8,56.8 46.8,56.8 46.8,57.8 44.8,57.8 44.8,58.8 41.8,58.8 41.8,59.8 38.8,59.8 38.8,60.8 26.8,60.8 26.8,59.8 
		23.8,59.8 23.8,58.8 20.8,58.8 20.8,57.8 18.8,57.8 18.8,56.8 16.8,56.8 16.8,55.8 15.8,55.8 15.8,54.8 14.8,54.8 14.8,53.8 
		13.8,53.8 13.8,52.8 12.8,52.8 12.8,51.8 11.8,51.8 11.8,50.8 10.8,50.8 10.8,49.8 9.8,49.8 9.8,47.8 8.8,47.8 8.8,45.8 7.8,45.8 
		7.8,42.8 6.8,42.8 6.8,39.8 	"/>
	<g>
		<polygon fill="#FF0307" points="35.8,19.8 35.8,18.8 36.8,18.8 36.8,17.8 38.8,17.8 38.8,16.8 40.8,16.8 40.8,15.8 43.8,15.8 
			43.8,14.8 51.8,14.8 51.8,15.8 53.8,15.8 53.8,16.8 54.8,16.8 54.8,17.8 55.8,17.8 55.8,19.8 56.8,19.8 56.8,22.8 35.8,22.8 		"/>
		<polygon fill="#FF9100" points="41.8,22.8 43.8,22.8 43.8,21.8 46.8,21.8 46.8,20.8 54.8,20.8 54.8,21.8 57.8,21.8 57.8,24.8 
			58.8,24.8 58.8,28.8 41.8,28.8 		"/>
		<polygon fill="#FFF700" points="44.8,27.8 47.8,27.8 47.8,26.8 57.8,26.8 57.8,27.8 59.8,27.8 59.8,34.8 44.8,34.8 		"/>
		<polygon fill="#41AF46" points="46.8,33.8 49.8,33.8 49.8,32.8 55.8,32.8 55.8,33.8 59.8,33.8 59.8,39.8 58.8,39.8 58.8,41.8 
			46.8,41.8 		"/>
		<polygon fill="#0068FD" points="48.8,40.8 50.8,40.8 50.8,39.8 55.8,39.8 55.8,40.8 58.8,40.8 58.8,42.8 57.8,42.8 57.8,45.8 
			56.8,45.8 56.8,46.8 48.8,46.8 		"/>
		<polygon fill="#D903CA" points="49.8,46.8 51.8,46.8 51.8,45.8 56.8,45.8 56.8,47.8 55.8,47.8 55.8,49.8 54.8,49.8 54.8,50.8 
			53.8,50.8 53.8,51.8 49.8,51.8 		"/>
	</g>
	<polygon fill="#E8E8E8" points="25.8,59.8 25.8,55.8 26.8,55.8 26.8,52.8 27.8,52.8 27.8,47.8 28.8,47.8 28.8,45.8 29.8,45.8 
		29.8,43.8 30.8,43.8 30.8,41.8 27.8,41.8 27.8,42.8 25.8,42.8 25.8,43.8 24.8,43.8 24.8,44.8 22.8,44.8 22.8,45.8 19.8,45.8 
		19.8,46.8 18.8,46.8 18.8,47.8 14.8,47.8 14.8,45.8 13.8,45.8 13.8,44.8 12.8,44.8 12.8,38.8 13.8,38.8 13.8,37.8 14.8,37.8 
		14.8,36.8 15.8,36.8 15.8,35.8 16.8,35.8 16.8,34.8 17.8,34.8 17.8,32.8 18.8,32.8 18.8,30.8 19.8,30.8 19.8,28.8 20.8,28.8 
		20.8,26.8 21.8,26.8 21.8,25.8 22.8,25.8 22.8,24.8 23.8,24.8 23.8,23.8 24.8,23.8 24.8,22.8 25.8,22.8 25.8,21.8 26.8,21.8 
		26.8,20.8 28.8,20.8 28.8,19.8 31.8,19.8 36.8,19.8 36.8,20.8 38.8,20.8 38.8,21.8 40.8,21.8 40.8,22.8 42.8,22.8 42.8,23.8 
		43.8,23.8 43.8,24.8 44.8,24.8 44.8,25.8 45.8,25.8 45.8,27.8 46.8,27.8 46.8,29.8 47.8,29.8 47.8,33.8 48.8,33.8 48.8,38.8 
		49.8,38.8 49.8,44.8 50.8,44.8 50.8,47.8 51.8,47.8 51.8,49.8 52.8,49.8 52.8,52.8 51.8,52.8 51.8,53.8 50.8,53.8 50.8,54.8 
		49.8,54.8 49.8,55.8 48.8,55.8 48.8,56.8 46.8,56.8 46.8,57.8 44.8,57.8 44.8,58.8 41.8,58.8 41.8,59.8 38.8,59.8 38.8,60.8 
		26.8,60.8 26.8,59.8 	"/>
	<polygon fill="#333E34" points="14.8,45.8 15.8,45.8 15.8,44.8 16.8,44.8 18.8,44.8 21.8,44.8 21.8,43.8 23.8,43.8 23.8,42.8 
		24.8,42.8 24.8,41.8 25.8,41.8 25.8,40.8 32.8,40.8 32.8,39.8 33.8,39.8 33.8,38.8 34.8,38.8 34.8,37.8 35.8,37.8 35.8,34.8 
		37.8,34.8 37.8,37.8 36.8,37.8 36.8,38.8 35.8,38.8 35.8,39.8 34.8,39.8 34.8,40.8 33.8,40.8 33.8,41.8 27.8,41.8 27.8,42.8 
		25.8,42.8 25.8,43.8 24.8,43.8 24.8,44.8 22.8,44.8 22.8,45.8 19.8,45.8 19.8,46.8 18.8,46.8 18.8,47.8 14.8,47.8 	"/>
	<polygon fill="#FFFFFF" points="28.8,15.8 29.8,15.8 29.8,17.8 30.8,17.8 30.8,18.8 31.8,18.8 31.8,19.8 36.8,19.8 36.8,20.8 
		38.8,20.8 38.8,21.8 40.8,21.8 40.8,22.8 42.8,22.8 42.8,23.8 43.8,23.8 43.8,24.8 44.8,24.8 44.8,25.8 45.8,25.8 45.8,27.8 
		46.8,27.8 46.8,29.8 47.8,29.8 47.8,33.8 48.8,33.8 48.8,38.8 49.8,38.8 49.8,44.8 50.8,44.8 50.8,47.8 51.8,47.8 51.8,49.8 
		52.8,49.8 52.8,52.8 51.8,52.8 51.8,53.8 50.8,53.8 50.8,52.8 49.8,52.8 49.8,51.8 48.8,51.8 48.8,50.8 47.8,50.8 47.8,47.8 
		46.8,47.8 46.8,43.8 45.8,43.8 45.8,39.8 44.8,39.8 44.8,36.8 43.8,36.8 43.8,29.8 42.8,29.8 42.8,26.8 41.8,26.8 41.8,25.8 
		40.8,25.8 40.8,24.8 39.8,24.8 39.8,23.8 38.8,23.8 38.8,22.8 37.8,22.8 37.8,21.8 35.8,21.8 35.8,20.8 32.8,20.8 32.8,21.8 
		31.8,21.8 31.8,22.8 29.8,22.8 29.8,18.8 27.8,18.8 27.8,14.8 28.8,14.8 	"/>
	<polygon fill="#C1C1C1" points="27.8,15.8 28.8,15.8 28.8,17.8 29.8,17.8 29.8,21.8 28.8,21.8 28.8,19.8 27.8,19.8 	"/>
	<polygon fill="#C1C1C1" points="25.8,22.8 25.8,24.8 23.8,24.8 23.8,23.8 24.8,23.8 24.8,22.8 	"/>
	<polygon fill="#C1C1C1" points="23.8,26.8 25.8,26.8 25.8,27.8 21.8,27.8 21.8,29.8 20.8,29.8 20.8,30.8 19.8,30.8 19.8,28.8 
		20.8,28.8 20.8,26.8 21.8,26.8 21.8,25.8 22.8,25.8 22.8,24.8 23.8,24.8 	"/>
	<rect x="18.8" y="30.8" fill="#C1C1C1" width="1" height="2"/>
	<polygon fill="#C1C1C1" points="19.8,34.8 19.8,36.8 16.8,36.8 16.8,37.8 15.8,37.8 15.8,38.8 13.8,38.8 13.8,37.8 14.8,37.8 
		14.8,36.8 15.8,36.8 15.8,35.8 16.8,35.8 16.8,34.8 17.8,34.8 17.8,32.8 18.8,32.8 18.8,34.8 	"/>
	<polygon fill="#C1C1C1" points="12.8,38.8 12.8,44.8 13.8,44.8 13.8,43.8 14.8,43.8 14.8,42.8 15.8,42.8 15.8,40.8 13.8,40.8 
		13.8,38.8 	"/>
	<rect x="13.8" y="44.8" fill="#C1C1C1" width="2" height="1"/>
	<polygon fill="#C1C1C1" points="18.8,46.8 18.8,45.8 19.8,45.8 19.8,44.8 20.8,44.8 20.8,42.8 18.8,42.8 18.8,43.8 16.8,43.8 
		16.8,45.8 15.8,45.8 15.8,46.8 	"/>
	<rect x="21.8" y="43.8" fill="#C1C1C1" width="1" height="1"/>
	<polygon fill="#C1C1C1" points="24.8,42.8 25.8,42.8 25.8,41.8 27.8,41.8 27.8,40.8 29.8,40.8 29.8,39.8 28.8,39.8 28.8,38.8 
		26.8,38.8 26.8,37.8 25.8,37.8 25.8,36.8 23.8,36.8 23.8,37.8 24.8,37.8 24.8,38.8 25.8,38.8 25.8,40.8 23.8,40.8 23.8,41.8 
		22.8,41.8 22.8,43.8 24.8,43.8 	"/>
	<rect x="23.8" y="32.8" fill="#C1C1C1" width="1" height="1"/>
	<rect x="24.8" y="31.8" fill="#C1C1C1" width="1" height="1"/>
	<rect x="25.8" y="30.8" fill="#C1C1C1" width="1" height="1"/>
	<polygon fill="#C1C1C1" points="22.8,32.8 22.8,31.8 23.8,31.8 23.8,30.8 21.8,30.8 21.8,32.8 	"/>
	<polygon fill="#333E34" points="12.8,41.8 14.8,41.8 14.8,42.8 13.8,42.8 13.8,43.8 12.8,43.8 	"/>
	<polygon fill="#333E34" points="24.8,29.8 24.8,30.8 22.8,30.8 22.8,28.8 25.8,28.8 25.8,29.8 	"/>
	<g>
		<polygon fill="#6E1A15" points="23.8,21.8 23.8,19.8 21.8,19.8 21.8,18.8 20.8,18.8 20.8,17.8 19.8,17.8 19.8,16.8 18.8,16.8 
			18.8,15.8 17.8,15.8 17.8,14.8 16.8,14.8 16.8,13.8 15.8,13.8 15.8,12.8 14.8,12.8 14.8,10.8 13.8,10.8 13.8,9.8 12.8,9.8 
			12.8,8.8 10.8,8.8 10.8,7.8 8.8,7.8 8.8,6.8 6.8,6.8 6.8,7.8 7.8,7.8 7.8,8.8 9.8,8.8 9.8,9.8 10.8,9.8 10.8,10.8 11.8,10.8 
			11.8,11.8 12.8,11.8 12.8,12.8 13.8,12.8 13.8,13.8 14.8,13.8 14.8,14.8 15.8,14.8 15.8,16.8 16.8,16.8 16.8,17.8 17.8,17.8 
			17.8,18.8 18.8,18.8 18.8,19.8 19.8,19.8 19.8,20.8 20.8,20.8 20.8,21.8 		"/>
		<path fill="#FF0307" d="M24.8,20.8v-2h-1v-1h-2v-2c0,0-2,0.1-2,0c0-0.1,0-1,0-1h-1v-2h-3v-2h-1v-1h-1v-1h-1v-1h-3v1h2v1h1v1h1v2h1
			v1h1v2h1v1h1v1h1v1h1v1h1v1H24.8z"/>
		<rect x="7.8" y="6.8" fill="#FF0307" width="2" height="1"/>
		<rect x="5.8" y="5.8" fill="#FF0307" width="2" height="1"/>
		<rect x="7.8" y="5.8" fill="#FF5240" width="1" height="1"/>
		<rect x="9.8" y="6.8" fill="#FF5240" width="2" height="1"/>
		<rect x="12.8" y="7.8" fill="#FF5240" width="1" height="1"/>
		<rect x="13.8" y="8.8" fill="#FF5240" width="1" height="1"/>
		<rect x="14.8" y="9.8" fill="#FF5240" width="1" height="1"/>
		<polygon fill="#FF5240" points="14.8,11.8 15.8,11.8 15.8,10.8 17.8,10.8 17.8,11.8 18.8,11.8 18.8,12.8 19.8,12.8 19.8,13.8 
			20.8,13.8 20.8,14.8 22.8,14.8 22.8,15.8 23.8,15.8 23.8,16.8 24.8,16.8 24.8,17.8 25.8,17.8 25.8,19.8 22.8,19.8 22.8,18.8 
			19.8,18.8 19.8,17.8 20.8,17.8 20.8,16.8 19.8,16.8 19.8,15.8 16.8,15.8 16.8,14.8 17.8,14.8 17.8,12.8 15.8,12.8 15.8,13.8 
			14.8,13.8 		"/>
		<polygon fill="#F0D6C3" points="22.8,16.8 23.8,16.8 23.8,17.8 24.8,17.8 24.8,19.8 22.8,19.8 22.8,18.8 21.8,18.8 21.8,17.8 
			22.8,17.8 		"/>
		<polygon fill="#6EC872" points="24.8,19.8 25.8,19.8 25.8,21.8 26.8,21.8 26.8,22.8 24.8,22.8 		"/>
		<polygon fill="#266826" points="23.8,20.8 24.8,20.8 24.8,21.8 25.8,21.8 25.8,22.8 24.8,22.8 24.8,21.8 23.8,21.8 		"/>
	</g>
	<polygon fill="#C1C1C1" points="25.8,59.8 25.8,55.8 26.8,55.8 26.8,52.8 27.8,52.8 27.8,47.8 28.8,47.8 28.8,45.8 29.8,45.8 
		29.8,43.8 30.8,43.8 30.8,41.8 33.8,41.8 33.8,40.8 34.8,40.8 34.8,39.8 35.8,39.8 35.8,38.8 36.8,38.8 36.8,37.8 37.8,37.8 
		37.8,34.8 36.8,34.8 36.8,30.8 35.8,30.8 35.8,28.8 36.8,28.8 36.8,29.8 37.8,29.8 37.8,30.8 38.8,30.8 38.8,32.8 39.8,32.8 
		39.8,38.8 38.8,38.8 38.8,40.8 37.8,40.8 37.8,42.8 36.8,42.8 36.8,43.8 35.8,43.8 35.8,44.8 34.8,44.8 34.8,45.8 33.8,45.8 
		33.8,46.8 32.8,46.8 32.8,47.8 31.8,47.8 31.8,49.8 30.8,49.8 30.8,51.8 29.8,51.8 29.8,54.8 28.8,54.8 28.8,57.8 27.8,57.8 
		27.8,60.8 26.8,60.8 26.8,59.8 	"/>
	<polygon fill="#C1C1C1" points="30.8,60.8 33.8,60.8 33.8,55.8 34.8,55.8 34.8,51.8 35.8,51.8 35.8,48.8 34.8,48.8 34.8,50.8 
		33.8,50.8 33.8,52.8 32.8,52.8 32.8,55.8 31.8,55.8 31.8,58.8 30.8,58.8 	"/>
	<polygon fill="#FFFFFF" points="34.8,29.8 35.8,29.8 35.8,30.8 36.8,30.8 36.8,37.8 35.8,37.8 35.8,38.8 34.8,38.8 34.8,39.8 
		33.8,39.8 33.8,40.8 29.8,40.8 29.8,39.8 28.8,39.8 28.8,38.8 31.8,38.8 31.8,37.8 32.8,37.8 32.8,36.8 33.8,36.8 33.8,33.8 
		34.8,33.8 	"/>
	<polygon fill="#FFFFFF" points="43.8,40.8 44.8,40.8 44.8,44.8 45.8,44.8 45.8,47.8 44.8,47.8 44.8,44.8 43.8,44.8 	"/>
	<rect x="44.8" y="48.8" fill="#FFFFFF" width="1" height="1"/>
</g>
</svg>
