<?xml version="1.0" encoding="utf-8"?>
<!-- Generator: Adobe Illustrator 17.0.0, SVG Export Plug-In . SVG Version: 6.00 Build 0)  -->
<!DOCTYPE svg PUBLIC "-//W3C//DTD SVG 1.1//EN" "http://www.w3.org/Graphics/SVG/1.1/DTD/svg11.dtd">
<svg version="1.1" id="Layer_1" xmlns="http://www.w3.org/2000/svg" xmlns:xlink="http://www.w3.org/1999/xlink" x="0px" y="0px"
	 width="64px" height="64px" viewBox="0 0 64 64" enable-background="new 0 0 64 64" xml:space="preserve">
<g>
	<circle fill="#FFFFFF" cx="33.373" cy="32.025" r="25.404"/>
	<g>
		<path fill="#8E98A7" d="M32.199,3c8.075,0,14.887,2.772,20.432,8.317C58.209,16.896,61,23.707,61,31.75
			c0,8.078-2.739,14.803-8.216,20.175c-5.818,5.717-12.68,8.575-20.585,8.575c-7.771,0-14.512-2.825-20.227-8.472
			C6.325,46.38,3.5,39.622,3.5,31.75c0-7.871,2.825-14.682,8.471-20.432C17.517,5.772,24.257,3,32.199,3z M32.301,8.186
			c-6.537,0-12.064,2.294-16.582,6.879c-4.69,4.792-7.034,10.354-7.034,16.686c0,6.366,2.327,11.877,6.981,16.529
			c4.655,4.656,10.199,6.982,16.634,6.982c6.4,0,11.98-2.342,16.737-7.033c4.518-4.347,6.777-9.84,6.777-16.48
			c0-6.537-2.294-12.097-6.878-16.685C44.349,10.479,38.804,8.186,32.301,8.186z M40.003,24.614V36.37h-3.285v13.964h-8.934V36.371
			h-3.285V24.614c0-0.514,0.18-0.95,0.538-1.309c0.36-0.358,0.797-0.539,1.309-0.539h11.809c0.479,0,0.907,0.18,1.283,0.539
			C39.813,23.664,40.003,24.101,40.003,24.614z M28.245,17.221c0-2.702,1.334-4.056,4.005-4.056s4.004,1.351,4.004,4.056
			c0,2.669-1.335,4.004-4.004,4.004S28.245,19.891,28.245,17.221z"/>
	</g>
</g>
</svg>
