<?xml version="1.0" encoding="utf-8"?>
<!-- Generator: Adobe Illustrator 17.0.0, SVG Export Plug-In . SVG Version: 6.00 Build 0)  -->
<!DOCTYPE svg PUBLIC "-//W3C//DTD SVG 1.1//EN" "http://www.w3.org/Graphics/SVG/1.1/DTD/svg11.dtd">
<svg version="1.1" id="Layer_1" xmlns="http://www.w3.org/2000/svg" xmlns:xlink="http://www.w3.org/1999/xlink" x="0px" y="0px"
	 width="178.333px" height="125px" viewBox="0 0 178.333 125" enable-background="new 0 0 178.333 125" xml:space="preserve">
<g>
	<g>
		<path fill="#D88228" d="M89.086,17.155c12.685,0,23.482,4.427,32.389,13.28c4.264,4.265,7.502,9.137,9.717,14.616
			c2.213,5.48,3.32,11.295,3.32,17.45c0,6.208-1.094,12.024-3.28,17.45c-2.186,5.425-5.413,10.216-9.677,14.372
			c-4.426,4.372-9.447,7.721-15.06,10.041c-5.615,2.322-11.417,3.482-17.409,3.482c-5.992,0-11.728-1.146-17.207-3.442
			c-5.48-2.294-10.392-5.614-14.737-9.959C52.795,90.1,49.49,85.2,47.222,79.748c-2.267-5.452-3.401-11.201-3.401-17.247
			c0-5.992,1.146-11.754,3.442-17.288c2.293-5.533,5.627-10.486,10-14.859C65.899,21.556,76.506,17.155,89.086,17.155z
			 M89.248,25.333c-10.365,0-19.083,3.617-26.154,10.851c-3.563,3.617-6.303,7.68-8.219,12.187C52.957,52.879,52,57.589,52,62.5
			c0,4.859,0.957,9.542,2.874,14.048c1.915,4.509,4.656,8.531,8.219,12.065c3.563,3.537,7.584,6.236,12.065,8.098
			c4.48,1.862,9.176,2.793,14.089,2.793c4.859,0,9.567-0.944,14.13-2.834c4.561-1.889,8.677-4.615,12.349-8.178
			c7.071-6.909,10.607-15.574,10.607-25.993c0-5.02-0.919-9.77-2.753-14.251c-1.836-4.481-4.508-8.474-8.016-11.984
			C108.276,28.977,99.504,25.333,89.248,25.333z M88.68,54.97l-6.073,3.158c-0.648-1.349-1.445-2.294-2.389-2.834
			c-0.945-0.539-1.822-0.81-2.632-0.81c-4.049,0-6.073,2.672-6.073,8.016c0,2.429,0.513,4.373,1.538,5.83
			c1.025,1.458,2.537,2.187,4.535,2.187c2.645,0,4.507-1.296,5.588-3.887l5.587,2.834c-1.188,2.214-2.834,3.955-4.94,5.223
			c-2.105,1.269-4.426,1.904-6.963,1.904c-4.049,0-7.315-1.242-9.797-3.725c-2.484-2.483-3.726-5.938-3.726-10.365
			c0-4.318,1.256-7.746,3.766-10.284c2.51-2.537,5.68-3.805,9.514-3.805C82.23,48.411,86.252,50.597,88.68,54.97z M114.835,54.97
			l-5.991,3.158c-0.648-1.349-1.445-2.294-2.389-2.834c-0.945-0.539-1.849-0.81-2.713-0.81c-4.049,0-6.073,2.672-6.073,8.016
			c0,2.429,0.512,4.373,1.538,5.83c1.025,1.458,2.537,2.187,4.534,2.187c2.645,0,4.507-1.296,5.587-3.887l5.668,2.834
			c-1.243,2.214-2.915,3.955-5.02,5.223c-2.105,1.269-4.4,1.904-6.883,1.904c-4.103,0-7.382-1.242-9.838-3.725
			c-2.457-2.483-3.684-5.938-3.684-10.365c0-4.318,1.255-7.746,3.765-10.284c2.51-2.537,5.681-3.805,9.515-3.805
			C108.465,48.411,112.459,50.597,114.835,54.97z"/>
	</g>
</g>
</svg>
