<?xml version="1.0" encoding="UTF-8"?>
<svg width="66px" height="66px" viewBox="0 0 66 66" version="1.1" xmlns="http://www.w3.org/2000/svg" xmlns:xlink="http://www.w3.org/1999/xlink">
    <!-- Generator: Sketch 40.1 (33804) - http://www.bohemiancoding.com/sketch -->
    <title>icon-collab</title>
    <desc>Created with Sketch.</desc>
    <defs></defs>
    <g id="Page-1" stroke="none" stroke-width="1" fill="none" fill-rule="evenodd">
        <g id="Artboard-4" transform="translate(-710.000000, -1927.000000)">
            <g id="icon-collab" transform="translate(710.000000, 1927.000000)">
                <rect id="Rectangle-Copy-5" fill="#405EFF" x="0" y="0" width="66" height="66" rx="1"></rect>
                <g id="users-32px-outline_parent" transform="translate(18.000000, 18.000000)" stroke-width="2" stroke="#FFFFFF">
                    <g id="Group">
                        <path d="M14,6 C14,2.686 16.686,0 20,0 C23.314,0 26,2.686 26,6 C26,9.314 23.314,13 20,13 C16.686,13 14,9.314 14,6 L14,6 Z" id="Shape"></path>
                        <path d="M16,17.43 C17.185,17.17 18.525,17 20,17 C23.301,17 25.926,17.854 27.657,18.651 C29.083,19.307 30,20.723 30,22.293 L30,30 L20,30" id="Shape"></path>
                        <path d="M3,15 C3,12.239 5.239,10 8,10 C10.761,10 13,12.239 13,15 C13,17.761 10.761,21 8,21 C5.239,21 3,17.761 3,15 L3,15 Z" id="Shape"></path>
                        <path d="M16,27.926 C16,26.668 15.218,25.549 14.039,25.11 C12.605,24.576 10.483,24 8,24 C5.517,24 3.395,24.576 1.961,25.11 C0.782,25.549 0,26.668 0,27.926 L0,30 L16,30 L16,27.926 L16,27.926 Z" id="Shape"></path>
                    </g>
                </g>
            </g>
        </g>
    </g>
</svg>