<?xml version="1.0" encoding="utf-8"?>
<!-- Generator: Adobe Illustrator 17.0.0, SVG Export Plug-In . SVG Version: 6.00 Build 0)  -->
<!DOCTYPE svg PUBLIC "-//W3C//DTD SVG 1.1//EN" "http://www.w3.org/Graphics/SVG/1.1/DTD/svg11.dtd">
<svg version="1.1" id="Layer_1" xmlns="http://www.w3.org/2000/svg" xmlns:xlink="http://www.w3.org/1999/xlink" x="0px" y="0px"
	 width="64px" height="64px" viewBox="0 0 64 64" enable-background="new 0 0 64 64" xml:space="preserve">
<g>
	<circle fill="#FFFFFF" cx="32.312" cy="32.56" r="25.166"/>
	<g>
		<path fill="#8E98A7" d="M32.207,4.987c7.764,0,14.339,2.693,19.726,8.08c5.385,5.354,8.08,11.912,8.08,19.677
			c0,7.767-2.645,14.275-7.932,19.528C46.497,57.757,39.871,60.5,32.207,60.5c-7.502,0-14.011-2.726-19.528-8.179
			C7.227,46.87,4.5,40.345,4.5,32.744c0-7.566,2.727-14.125,8.179-19.677C18.064,7.68,24.574,4.987,32.207,4.987z M32.306,9.994
			c-6.311,0-11.647,2.231-16.009,6.692c-4.528,4.594-6.791,9.946-6.791,16.058c0,6.18,2.247,11.499,6.74,15.96
			c4.494,4.495,9.847,6.74,16.059,6.74c6.178,0,11.566-2.262,16.159-6.79c4.362-4.229,6.543-9.532,6.543-15.911
			c0-6.343-2.214-11.697-6.641-16.058C43.97,12.223,38.616,9.994,32.306,9.994z M42.765,26.2v4.759H22.592V26.2H42.765z
			 M42.765,35.123v4.756H22.592v-4.756C22.592,35.123,42.765,35.123,42.765,35.123z"/>
	</g>
</g>
</svg>
