<?xml version="1.0" encoding="utf-8"?>
<!-- Generator: Adobe Illustrator 17.0.0, SVG Export Plug-In . SVG Version: 6.00 Build 0)  -->
<!DOCTYPE svg PUBLIC "-//W3C//DTD SVG 1.1//EN" "http://www.w3.org/Graphics/SVG/1.1/DTD/svg11.dtd">
<svg version="1.1" id="Layer_1" xmlns="http://www.w3.org/2000/svg" xmlns:xlink="http://www.w3.org/1999/xlink" x="0px" y="0px"
	 width="178.333px" height="125px" viewBox="0 0 178.333 125" enable-background="new 0 0 178.333 125" xml:space="preserve">
<path fill="#8E98A8" d="M89.167,40.691c-29.201-20.923-60.087,0-60.087,0v59.104c0,0,30.886-20.923,60.087,0
	c0,0,30.886-20.923,60.087,0V40.691C120.052,19.768,89.167,40.691,89.167,40.691z"/>
<path fill="#D1D3D4" d="M89.167,33.629c-29.201-20.923-60.087,0-60.087,0v59.104c0,0,30.886-20.923,60.087,0
	c0,0,30.886-20.923,60.087,0V33.629C120.052,12.706,89.167,33.629,89.167,33.629z"/>
<line fill="none" stroke="#8E98A8" stroke-miterlimit="10" x1="89.167" y1="33.629" x2="89.167" y2="92.733"/>
</svg>
