<?xml version="1.0" encoding="utf-8"?>
<!-- Generator: Adobe Illustrator 17.0.0, SVG Export Plug-In . SVG Version: 6.00 Build 0)  -->
<!DOCTYPE svg PUBLIC "-//W3C//DTD SVG 1.1//EN" "http://www.w3.org/Graphics/SVG/1.1/DTD/svg11.dtd">
<svg version="1.1" id="Layer_1" xmlns="http://www.w3.org/2000/svg" xmlns:xlink="http://www.w3.org/1999/xlink" x="0px" y="0px"
	 width="64px" height="64px" viewBox="0 0 64 64" enable-background="new 0 0 64 64" xml:space="preserve">
<g>
	<circle fill="#FFFFFF" cx="31.542" cy="32.108" r="23.959"/>
	<g>
		<path fill="#8E98A7" d="M31.953,5.657c7.368,0,13.608,2.556,18.721,7.668c5.11,5.081,7.668,11.305,7.668,18.674
			c0,7.371-2.51,13.547-7.528,18.534c-5.299,5.206-11.587,7.809-18.861,7.809c-7.12,0-13.297-2.587-18.534-7.762
			c-5.174-5.174-7.762-11.366-7.762-18.58c0-7.181,2.588-13.406,7.762-18.674C18.531,8.214,24.709,5.657,31.953,5.657z
			 M32.047,10.409c-5.99,0-11.054,2.117-15.194,6.351c-4.297,4.36-6.445,9.44-6.445,15.24c0,5.865,2.132,10.913,6.396,15.147
			c4.265,4.266,9.345,6.397,15.241,6.397c5.864,0,10.977-2.148,15.335-6.444c4.14-4.014,6.209-9.047,6.209-15.1
			c0-6.02-2.102-11.101-6.302-15.24C43.117,12.525,38.036,10.409,32.047,10.409z M20.287,28.283c0.501-3.23,1.802-5.731,3.904-7.503
			c2.101-1.772,4.656-2.657,7.667-2.657c4.138,0,7.433,1.334,9.878,3.997c2.446,2.666,3.669,6.084,3.669,10.255
			c0,4.046-1.27,7.409-3.809,10.089c-2.542,2.68-5.833,4.022-9.88,4.022c-2.979,0-5.551-0.893-7.714-2.681
			c-2.164-1.788-3.465-4.328-3.904-7.62h6.634c0.156,3.199,2.085,4.798,5.786,4.798c1.849,0,3.34-0.8,4.468-2.399
			c1.13-1.599,1.695-3.732,1.695-6.397c0-2.791-0.518-4.915-1.552-6.374c-1.036-1.458-2.524-2.187-4.47-2.187
			c-3.513,0-5.488,1.552-5.927,4.656h1.929l-5.221,5.222l-5.222-5.222L20.287,28.283L20.287,28.283z"/>
	</g>
</g>
</svg>
