<?xml version="1.0" encoding="utf-8"?>
<!-- Generator: Adobe Illustrator 17.0.0, SVG Export Plug-In . SVG Version: 6.00 Build 0)  -->
<!DOCTYPE svg PUBLIC "-//W3C//DTD SVG 1.1//EN" "http://www.w3.org/Graphics/SVG/1.1/DTD/svg11.dtd">
<svg version="1.1" id="Layer_1" xmlns="http://www.w3.org/2000/svg" xmlns:xlink="http://www.w3.org/1999/xlink" x="0px" y="0px"
	 width="178.333px" height="125px" viewBox="0 0 178.333 125" enable-background="new 0 0 178.333 125" xml:space="preserve">
<path fill="#726658" d="M73.344,43.164c0,0,4.937,15.59,5.229,13.231c0.225-1.818,11.335-6.121,16.42-7.999l2.44,6.176l7.169-12.237
	l-13.597-4.03l2.499,6.324C87.521,45.263,73.344,43.164,73.344,43.164z"/>
<path fill="#726658" d="M82.932,67.993c0,0-4.206,15.803-2.693,13.97c1.166-1.413,12.849,0.923,18.147,2.068l-1.257,6.52
	l12.618-6.474l-9.307-10.701l-1.287,6.676C93.765,77.377,82.932,67.993,82.932,67.993z"/>
<circle fill="#726658" cx="51.32" cy="70.056" r="18.908"/>
<circle fill="#726658" cx="123.313" cy="38.305" r="10.269"/>
<circle fill="#726658" cx="128.934" cy="83.51" r="10.269"/>
</svg>
