<?xml version="1.0" encoding="utf-8"?>
<!-- Generator: Adobe Illustrator 17.0.0, SVG Export Plug-In . SVG Version: 6.00 Build 0)  -->
<!DOCTYPE svg PUBLIC "-//W3C//DTD SVG 1.1//EN" "http://www.w3.org/Graphics/SVG/1.1/DTD/svg11.dtd">
<svg version="1.1" id="Layer_1" xmlns="http://www.w3.org/2000/svg" xmlns:xlink="http://www.w3.org/1999/xlink" x="0px" y="0px"
	 width="178.333px" height="125px" viewBox="0 0 178.333 125" enable-background="new 0 0 178.333 125" xml:space="preserve">
<path fill="#9EA4AD" d="M72.501,39.777c0,0,6.605,20.858,6.996,17.702c0.301-2.432,15.165-8.189,21.968-10.702l3.265,8.262
	l9.592-16.372l-18.192-5.392l3.343,8.46C91.469,42.585,72.501,39.777,72.501,39.777z"/>
<path fill="#E6AD73" d="M85.329,72.996c0,0-5.627,21.143-3.603,18.69c1.56-1.89,17.191,1.234,24.279,2.767l-1.682,8.724
	l16.882-8.661l-12.452-14.317l-1.722,8.932C99.823,85.55,85.329,72.996,85.329,72.996z"/>
<circle fill="#726658" cx="43.035" cy="75.756" r="25.297"/>
<circle fill="#726658" cx="139.354" cy="33.276" r="13.739"/>
<circle fill="#726658" cx="146.875" cy="93.756" r="13.739"/>
</svg>
