<?xml version="1.0" encoding="utf-8"?>
<!-- Generator: Adobe Illustrator 17.0.0, SVG Export Plug-In . SVG Version: 6.00 Build 0)  -->
<!DOCTYPE svg PUBLIC "-//W3C//DTD SVG 1.1//EN" "http://www.w3.org/Graphics/SVG/1.1/DTD/svg11.dtd">
<svg version="1.1" id="Layer_1" xmlns="http://www.w3.org/2000/svg" xmlns:xlink="http://www.w3.org/1999/xlink" x="0px" y="0px"
	 width="104.667px" height="104.5px" viewBox="0 0 104.667 104.5" enable-background="new 0 0 104.667 104.5" xml:space="preserve">
<g>
	<g>
		<path fill="#D6D6D6" d="M65.768,100.822"/>
	</g>
	<path fill="#D6D6D6" d="M41.168,92.259c5.41,1.562,13.838,1.939,15.695-3.612c1.438-4.296-1.701-7.209-5.077-9.227
		c-4.235-2.53-8.845-4.598-12.044-8.503c-5.166-6.305-6.586-13.794-5.776-21.469c0,0,10.276-0.644,17.534,7.291
		c5.559,6.078,7.648,11.54,8.08,20.761c0.955-4.677,2.875-9.821,6.727-12.632c8.227-5.999,15.932-1.853,15.932-1.853
		c0.18,5.127-1.625,9.732-5.91,12.663c-4.506,3.082-11.887,3.856-15.318,8.467c-1.453,1.953-1.535,5.055,0.209,6.865
		c2.156,2.236,5.691,1.161,8.226,0.259c7.189-2.562,13.713-8.482,18.025-14.627c4.732-6.743,7.828-16.438,7.828-25.298
		c0-23.483-19.037-42.52-42.519-42.52c-23.482,0-42.519,19.037-42.519,42.52c0,9.729,3.274,18.669,8.774,25.822
		C24.535,84.321,32.262,89.685,41.168,92.259"/>
</g>
</svg>
