<?xml version="1.0" encoding="utf-8"?>
<!-- Generator: Adobe Illustrator 17.0.0, SVG Export Plug-In . SVG Version: 6.00 Build 0)  -->
<!DOCTYPE svg PUBLIC "-//W3C//DTD SVG 1.1//EN" "http://www.w3.org/Graphics/SVG/1.1/DTD/svg11.dtd">
<svg version="1.1" id="Layer_1" xmlns="http://www.w3.org/2000/svg" xmlns:xlink="http://www.w3.org/1999/xlink" x="0px" y="0px"
	 width="64px" height="64px" viewBox="0 0 64 64" enable-background="new 0 0 64 64" xml:space="preserve">
<g>
	<circle fill="#FFFFFF" cx="32.36" cy="33.065" r="24.698"/>
	<path fill="#8E98A7" d="M52.26,13.726c-5.294-5.288-11.776-7.931-19.443-7.931c-7.577,0-13.99,2.642-19.239,7.931
		C8.192,19.198,5.5,25.67,5.5,33.147c0,7.475,2.692,13.904,8.078,19.282c5.386,5.382,11.797,8.071,19.239,8.071
		c7.53,0,14.057-2.714,19.58-8.138c5.205-5.152,7.807-11.556,7.807-19.214C60.204,25.488,57.556,19.013,52.26,13.726z
		 M48.836,48.807c-4.518,4.467-9.837,6.699-15.95,6.699c-6.117,0-11.39-2.211-15.817-6.634s-6.642-9.664-6.642-15.725
		c0-2.564,0.405-4.989,1.205-7.274l7.248,3.209h-0.522v3.251h2.565c0,0.46-0.046,0.917-0.046,1.374v0.78h-2.519v3.251h2.975
		c0.413,2.428,1.329,4.397,2.564,5.953c2.564,3.389,6.686,5.219,11.173,5.219c2.932,0,5.584-0.869,7.143-1.74l-1.1-5.081
		c-0.962,0.503-3.112,1.189-5.217,1.189c-2.291,0-4.441-0.686-5.907-2.334c-0.686-0.778-1.19-1.833-1.51-3.205h9.955l14.146,6.261
		C51.6,45.734,50.356,47.338,48.836,48.807z M31.046,34.485l-0.06-0.046l0.103,0.046H31.046z M39.563,32.331h0.409v-3.251H32.22
		l-3.15-1.393c0.271-0.609,0.592-1.155,0.967-1.581c1.42-1.743,3.434-2.475,5.632-2.475c2.015,0,3.892,0.595,5.082,1.098
		l1.282-5.221c-1.65-0.731-4.076-1.372-6.868-1.372c-4.304,0-7.967,1.739-10.578,4.67c-0.58,0.669-1.082,1.421-1.538,2.215
		l-8.995-3.981c0.872-1.307,1.897-2.562,3.084-3.759c4.292-4.376,9.539-6.565,15.748-6.565c6.206,0,11.479,2.188,15.815,6.565
		c4.38,4.33,6.571,9.618,6.571,15.866c0,2.057-0.232,3.999-0.694,5.83L39.563,32.331z"/>
</g>
</svg>
