<?xml version="1.0" encoding="utf-8"?>
<!-- Generator: Adobe Illustrator 18.1.1, SVG Export Plug-In . SVG Version: 6.00 Build 0)  -->
<!DOCTYPE svg PUBLIC "-//W3C//DTD SVG 1.1//EN" "http://www.w3.org/Graphics/SVG/1.1/DTD/svg11.dtd">
<svg version="1.1" id="Layer_2" xmlns="http://www.w3.org/2000/svg" xmlns:xlink="http://www.w3.org/1999/xlink" x="0px" y="0px"
	 viewBox="0 0 90 90" enable-background="new 0 0 90 90" xml:space="preserve">
<g>
	<path fill="#FF5240" d="M7,76h3v1h1v1h1v4h-1v1h-1v1H7v-1H6v-1H5v-4h1v-1h1V76z M7,82h3v-4H7V82z"/>
	<path fill="#FF5240" d="M50,76h3v1h1v1h1v4h-1v1h-1v1h-3v-1h-1v-1h-1v-4h1v-1h1V76z M50,82h3v-4h-3V82z"/>
	<path fill="#FF5240" d="M18,76v1h1v1h1v4h-1v1h-1v1h-2v-1h-1v4h-2V76h2v1h1v-1H18z M15,82h3v-4h-3V82z"/>
	<path fill="#FF5240" d="M21,78h1v-1h1v-1h4v1h1v1h1v3h-6v1h5v2h-5v-1h-1v-1h-1V78z M23,79h4v-1h-4V79z"/>
	<path fill="#FF5240" d="M77,78h1v-1h1v-1h4v1h1v1h1v3h-6v1h5v2h-5v-1h-1v-1h-1V78z M79,79h4v-1h-4V79z"/>
	<polygon fill="#FF5240" points="30,84 30,76 35,76 35,77 36,77 36,78 37,78 37,84 35,84 35,78 32,78 32,84 	"/>
	<polygon fill="#FF5240" points="42,76 47,76 47,78 43,78 43,79 46,79 46,80 47,80 47,83 46,83 46,84 41,84 41,82 45,82 45,81 
		42,81 42,80 41,80 41,77 42,77 	"/>
	<polygon fill="#FF5240" points="56,76 58,76 58,82 61,82 61,76 63,76 63,82 62,82 62,83 61,83 61,84 58,84 58,83 57,83 57,82 
		56,82 	"/>
	<polygon fill="#FF5240" points="64,84 64,76 69,76 69,78 66,78 66,84 	"/>
	<polygon fill="#FF5240" points="76,76 76,78 72,78 72,82 76,82 76,84 72,84 72,83 71,83 71,82 70,82 70,78 71,78 71,77 72,77 
		72,76 	"/>
</g>
<g>
	<polygon fill="#329E41" points="25,9 27,9 27,15 30,15 30,9 32,9 32,15 31,15 31,16 30,16 30,17 27,17 27,16 26,16 26,15 25,15 	
		"/>
	<polygon fill="#329E41" points="39,9 41,9 41,15 44,15 44,9 46,9 46,15 45,15 45,16 44,16 44,17 41,17 41,16 40,16 40,15 39,15 	
		"/>
	<polygon fill="#329E41" points="47,17 47,9 52,9 52,11 49,11 49,17 	"/>
	<path fill="#329E41" d="M63,11h1v-1h1V9h4v1h1v1h1v3h-6v1h5v2h-5v-1h-1v-1h-1V11z M65,12h4v-1h-4V12z"/>
	<polygon fill="#329E41" points="62,9 62,11 58,11 58,15 62,15 62,17 58,17 58,16 57,16 57,15 56,15 56,11 57,11 57,10 58,10 58,9 	
		"/>
	<polygon fill="#329E41" points="19,6 20,6 20,5 24,5 24,7 21,7 21,9 24,9 24,11 21,11 21,17 19,17 	"/>
	<polygon fill="#329E41" points="33,6 35,6 35,9 38,9 38,11 35,11 35,15 38,15 38,17 35,17 35,16 34,16 34,15 33,15 	"/>
	<rect x="53" y="9" fill="#329E41" width="2" height="8"/>
	<rect x="53" y="5" fill="#329E41" width="2" height="2"/>
</g>
<g>
	<polygon fill="#343F35" points="18,53 18,41 19,41 19,38 20,38 20,35 21,35 21,33 22,33 22,31 23,31 23,30 24,30 24,29 25,29 
		25,28 26,28 26,27 27,27 27,26 28,26 28,25 29,25 29,24 31,24 31,23 33,23 33,22 36,22 36,21 39,21 39,20 51,20 51,21 54,21 54,22 
		57,22 57,23 59,23 59,24 61,24 61,25 62,25 62,26 63,26 63,27 64,27 64,28 65,28 65,29 66,29 66,30 67,30 67,31 68,31 68,33 69,33 
		69,35 70,35 70,38 71,38 71,41 72,41 72,53 71,53 71,56 70,56 70,59 69,59 69,61 68,61 68,63 67,63 67,64 66,64 66,65 65,65 65,66 
		64,66 64,67 63,67 63,68 62,68 62,69 61,69 61,70 59,70 59,71 57,71 57,72 54,72 54,73 51,73 51,74 39,74 39,73 36,73 36,72 33,72 
		33,71 31,71 31,70 29,70 29,69 28,69 28,68 27,68 27,67 26,67 26,66 25,66 25,65 24,65 24,64 23,64 23,63 22,63 22,61 21,61 21,59 
		20,59 20,56 19,56 19,53 	"/>
	<polygon fill="#329E41" points="18,52 18,40 19,40 19,37 20,37 20,34 21,34 21,32 22,32 22,30 23,30 23,29 24,29 24,28 25,28 
		25,27 26,27 26,26 27,26 27,25 28,25 28,24 29,24 29,23 31,23 31,22 33,22 33,21 36,21 36,20 39,20 39,19 51,19 51,20 54,20 54,21 
		57,21 57,22 59,22 59,23 61,23 61,24 62,24 62,25 63,25 63,26 64,26 64,27 65,27 65,28 66,28 66,29 67,29 67,30 68,30 68,32 69,32 
		69,34 70,34 70,37 71,37 71,40 72,40 72,52 71,52 71,55 70,55 70,58 69,58 69,60 68,60 68,62 67,62 67,63 66,63 66,64 65,64 65,65 
		64,65 64,66 63,66 63,67 62,67 62,68 61,68 61,69 59,69 59,70 57,70 57,71 54,71 54,72 51,72 51,73 39,73 39,72 36,72 36,71 33,71 
		33,70 31,70 31,69 29,69 29,68 28,68 28,67 27,67 27,66 26,66 26,65 25,65 25,64 24,64 24,63 23,63 23,62 22,62 22,60 21,60 21,58 
		20,58 20,55 19,55 19,52 	"/>
	<g>
		<polygon fill="#FF0307" points="48,32 48,31 49,31 49,30 51,30 51,29 53,29 53,28 56,28 56,27 64,27 64,28 66,28 66,29 67,29 
			67,30 68,30 68,32 69,32 69,35 48,35 		"/>
		<polygon fill="#FF9100" points="54,35 56,35 56,34 59,34 59,33 67,33 67,34 70,34 70,37 71,37 71,41 54,41 		"/>
		<polygon fill="#FFF700" points="57,40 60,40 60,39 70,39 70,40 72,40 72,47 57,47 		"/>
		<polygon fill="#41AF46" points="59,46 62,46 62,45 68,45 68,46 72,46 72,52 71,52 71,54 59,54 		"/>
		<polygon fill="#0068FD" points="61,53 63,53 63,52 68,52 68,53 71,53 71,55 70,55 70,58 69,58 69,59 61,59 		"/>
		<polygon fill="#D903CA" points="62,59 64,59 64,58 69,58 69,60 68,60 68,62 67,62 67,63 66,63 66,64 62,64 		"/>
	</g>
	<polygon fill="#E8E8E8" points="38,72 38,68 39,68 39,65 40,65 40,60 41,60 41,58 42,58 42,56 43,56 43,54 40,54 40,55 38,55 
		38,56 37,56 37,57 35,57 35,58 32,58 32,59 31,59 31,60 27,60 27,58 26,58 26,57 25,57 25,51 26,51 26,50 27,50 27,49 28,49 28,48 
		29,48 29,47 30,47 30,45 31,45 31,43 32,43 32,41 33,41 33,39 34,39 34,38 35,38 35,37 36,37 36,36 37,36 37,35 38,35 38,34 39,34 
		39,33 41,33 41,32 44,32 49,32 49,33 51,33 51,34 53,34 53,35 55,35 55,36 56,36 56,37 57,37 57,38 58,38 58,40 59,40 59,42 60,42 
		60,46 61,46 61,51 62,51 62,57 63,57 63,60 64,60 64,62 65,62 65,65 64,65 64,66 63,66 63,67 62,67 62,68 61,68 61,69 59,69 59,70 
		57,70 57,71 54,71 54,72 51,72 51,73 39,73 39,72 	"/>
	<polygon fill="#333E34" points="27,58 28,58 28,57 29,57 31,57 34,57 34,56 36,56 36,55 37,55 37,54 38,54 38,53 45,53 45,52 
		46,52 46,51 47,51 47,50 48,50 48,47 50,47 50,50 49,50 49,51 48,51 48,52 47,52 47,53 46,53 46,54 40,54 40,55 38,55 38,56 37,56 
		37,57 35,57 35,58 32,58 32,59 31,59 31,60 27,60 	"/>
	<polygon fill="#FFFFFF" points="41,28 42,28 42,30 43,30 43,31 44,31 44,32 49,32 49,33 51,33 51,34 53,34 53,35 55,35 55,36 
		56,36 56,37 57,37 57,38 58,38 58,40 59,40 59,42 60,42 60,46 61,46 61,51 62,51 62,57 63,57 63,60 64,60 64,62 65,62 65,65 64,65 
		64,66 63,66 63,65 62,65 62,64 61,64 61,63 60,63 60,60 59,60 59,56 58,56 58,52 57,52 57,48.9 56,49 56,42 55,42 55,39 54,39 
		54,38 53,38 53,37 52,37 52,36 51,36 51,35 50,35 50,34 48,34 48,33 45,33 45,34 44,34 44,35 42,35 42,31 40,31 40,27 41,27 	"/>
	<polygon fill="#C1C1C1" points="40,28 41,28 41,30 42,30 42,34 41,34 41,32 40,32 	"/>
	<polygon fill="#C1C1C1" points="38,35 38,37 36,37 36,36 37,36 37,35 	"/>
	<polygon fill="#C1C1C1" points="36,39 38,39 38,40 34,40 34,42 33,42 33,43 32,43 32,41 33,41 33,39 34,39 34,38 35,38 35,37 
		36,37 	"/>
	<rect x="31" y="43" fill="#C1C1C1" width="1" height="2"/>
	<polygon fill="#C1C1C1" points="32,47 32,49 29,49 29,50 28,50 28,51 26,51 26,50 27,50 27,49 28,49 28,48 29,48 29,47 30,47 
		30,45 31,45 31,47 	"/>
	<polygon fill="#C1C1C1" points="25,51 25,57 26,57 26,56 27,56 27,55 28,55 28,53 26,53 26,51 	"/>
	<rect x="26" y="57" fill="#C1C1C1" width="2" height="1"/>
	<polygon fill="#C1C1C1" points="31,59 31,58 32,58 32,57 33,57 33,55 31,55 31,56 29,56 29,58 28,58 28,59 	"/>
	<rect x="34" y="56" fill="#C1C1C1" width="1" height="1"/>
	<polygon fill="#C1C1C1" points="37,55 38,55 38,54 40,54 40,53 42,53 42,52 41,52 41,51 39,51 39,50 38,50 38,49 36,49 36,50 
		37,50 37,51 38,51 38,53 36,53 36,54 35,54 35,56 37,56 	"/>
	<rect x="36" y="45" fill="#C1C1C1" width="1" height="1"/>
	<rect x="37" y="44" fill="#C1C1C1" width="1" height="1"/>
	<rect x="38" y="43" fill="#C1C1C1" width="1" height="1"/>
	<polygon fill="#C1C1C1" points="35,45 35,44 36,44 36,43 34,43 34,45 	"/>
	<polygon fill="#333E34" points="25,54 27,54 27,55 26,55 26,56 25,56 	"/>
	<polygon fill="#333E34" points="37,42 37,43 35,43 35,41 38,41 38,42 	"/>
	<g>
		<polygon fill="#6E1A15" points="36,34 36,32 34,32 34,31 33,31 33,30 32,30 32,29 31,29 31,28 30,28 30,27 29,27 29,26 28,26 
			28,25 27,25 27,23 26,23 26,22 25,22 25,21 23,21 23,20 21,20 21,19 19,19 19,20 20,20 20,21 22,21 22,22 23,22 23,23 24,23 
			24,24 25,24 25,25 26,25 26,26 27,26 27,27 28,27 28,29 29,29 29,30 30,30 30,31 31,31 31,32 32,32 32,33 33,33 33,34 		"/>
		<path fill="#FF0307" d="M37,33v-2h-1v-1h-2v-2c0,0-2,0.1-2,0c0-0.1,0-1,0-1h-1v-2h-3v-2h-1v-1h-1v-1h-1v-1h-3v1h2v1h1v1h1v2h1v1h1
			v2h1v1h1v1h1v1h1v1h1v1H37z"/>
		<rect x="20" y="19" fill="#FF0307" width="2" height="1"/>
		<rect x="18" y="18" fill="#FF0307" width="2" height="1"/>
		<rect x="20" y="18" fill="#FF5240" width="1" height="1"/>
		<rect x="22" y="19" fill="#FF5240" width="2" height="1"/>
		<rect x="25" y="20" fill="#FF5240" width="1" height="1"/>
		<rect x="26" y="21" fill="#FF5240" width="1" height="1"/>
		<rect x="27" y="22" fill="#FF5240" width="1" height="1"/>
		<polygon fill="#FF5240" points="27,24 28,24 28,23 30,23 30,24 31,24 31,25 32,25 32,26 33,26 33,27 35,27 35,28 36,28 36,29 
			37,29 37,30 38,30 38,32 35,32 35,31 32,31 32,30 33,30 33,29 32,29 32,28 29,28 29,27 30,27 30,25 28,25 28,26 27,26 		"/>
		<polygon fill="#F0D6C3" points="35,29 36,29 36,30 37,30 37,32 35,32 35,31 34,31 34,30 35,30 		"/>
		<polygon fill="#6EC872" points="37,32 38,32 38,34 39,34 39,35 37,35 		"/>
		<polygon fill="#266826" points="36,33 37,33 37,34 38,34 38,35 37,35 37,34 36,34 		"/>
	</g>
	<polygon fill="#C1C1C1" points="38,72 38,68 39,68 39,65 40,65 40,60 41,60 41,58 42,58 42,56 43,56 43,54 46,54 46,53 47,53 
		47,52 48,52 48,51 49,51 49,50 50,50 50,47 49,47 49,43 48,43 48,41 49,41 49,42 50,42 50,43 51,43 51,45 52,45 52,51 51,51 51,53 
		50,53 50,55 49,55 49,56 48,56 48,57 47,57 47,58 46,58 46,59 45,59 45,60 44,60 44,62 43,62 43,64 42,64 42,67 41,67 41,70 40,70 
		40,73 39,73 39,72 	"/>
	<polygon fill="#C1C1C1" points="43,73 46,73 46,68 47,68 47,64 48,64 48,61 47,61 47,63 46,63 46,65 45,65 45,68 44,68 44,71 
		43,71 	"/>
	<polygon fill="#FFFFFF" points="47,42 48,42 48,43 49,43 49,50 48,50 48,51 47,51 47,52 46,52 46,53 42,53 42,52 41,52 41,51 
		44,51 44,50 45,50 45,49 46,49 46,46 47,46 	"/>
	<polygon fill="#FFFFFF" points="56,53 57,53 57,57 58,57 58,60 57,60 57,57 56,57 	"/>
	<rect x="57" y="61" fill="#FFFFFF" width="1" height="1"/>
</g>
</svg>
